<svg width="30" height="30" viewBox="0 0 30 30" fill="none" xmlns="http://www.w3.org/2000/svg">
<path fill-rule="evenodd" clip-rule="evenodd" d="M29.4142 4.24283C30.1952 3.46178 30.1952 2.19545 29.4142 1.4144C28.6331 0.633351 27.3668 0.633351 26.5857 1.4144L15.4142 12.586L4.24258 1.4144C3.46153 0.633352 2.1952 0.633351 1.41415 1.4144C0.633106 2.19545 0.633106 3.46178 1.41415 4.24283L12.5857 15.4144L1.41416 26.586C0.63311 27.367 0.633109 28.6334 1.41416 29.4144C2.19521 30.1954 3.46154 30.1954 4.24258 29.4144L15.4142 18.2428L26.5857 29.4144C27.3668 30.1954 28.6331 30.1954 29.4142 29.4144C30.1952 28.6334 30.1952 27.367 29.4142 26.586L18.2426 15.4144L29.4142 4.24283Z" fill="#878787"/>
</svg>
