<svg width="409" height="303" viewBox="0 0 409 303" fill="none" xmlns="http://www.w3.org/2000/svg">
<path d="M38.844 28.832C38.844 29.404 39.104 29.924 39.104 30.496C39.104 31.38 38.428 32.056 37.544 32.056C35.984 32.056 35.724 30.132 35.724 28.884C35.724 27.22 36.504 25.608 37.388 24.204C39.052 21.5 41.08 19.888 44.356 19.888C48.724 19.888 51.584 24.412 51.584 28.416C51.584 30.548 50.284 34.552 49.296 36.476C48.204 38.816 46.852 41 45.5 43.236C44.148 45.524 42.224 48.956 40.56 50.932C42.848 50.828 45.136 50.828 47.424 50.828C49.192 50.776 50.96 50.724 52.78 50.724C53.612 50.724 54.34 51.452 54.34 52.284C54.34 53.012 53.924 53.48 53.3 53.74C52.78 54 44.044 53.948 42.588 54C41.236 54 39.832 54.156 38.48 54.156C37.284 54.156 35.88 53.792 35.88 52.388C35.88 52.024 35.984 51.712 36.192 51.4C36.452 50.932 36.92 50.516 37.284 50.1L38.844 48.02C40.248 46.148 41.392 44.068 42.588 42.092C44.772 38.348 47.112 34.708 48.1 30.444C48.256 29.768 48.464 29.04 48.464 28.364C48.464 26.128 46.852 23.008 44.356 23.008C41.86 23.008 40.716 24.516 39.624 26.544C39.26 27.272 38.844 28 38.844 28.832ZM58.6398 40.22C58.6398 35.072 59.3678 28.884 62.3838 24.568C63.3718 23.216 64.7758 22.124 66.2838 21.344C67.1678 20.876 68.8838 20.304 69.8718 20.304C69.9758 20.304 70.0798 20.304 70.1838 20.356C70.2878 20.304 70.3918 20.304 70.5478 20.304C71.2758 20.304 71.7438 20.824 72.2118 21.344C75.3318 24.36 75.7478 28.832 75.7478 32.992C75.7478 38.66 75.1238 45.42 72.0558 50.36C71.5878 51.192 71.0158 51.972 70.3398 52.648C69.0398 53.844 67.6358 54.78 65.7638 54.78C64.4118 54.78 63.3198 54.208 62.2798 53.272C59.2118 50.568 58.6398 44.12 58.6398 40.22ZM70.7038 24.412C70.4438 24.048 70.1318 23.788 69.8718 23.476C69.7158 23.476 69.5598 23.528 69.4038 23.528C67.5838 23.944 66.0758 24.932 64.9318 26.44C62.3838 29.716 61.7598 36.164 61.7598 40.22C61.7598 43.288 62.0718 48.54 64.2558 50.828C64.6718 51.244 65.1398 51.66 65.7638 51.66C66.8558 51.66 67.7398 50.88 68.4158 50.1C71.3278 46.824 72.0038 41.936 72.3678 37.724C72.5238 36.164 72.6278 34.552 72.6278 32.992C72.6278 29.976 72.5238 26.96 70.7038 24.412ZM80.7296 40.22C80.7296 35.072 81.4576 28.884 84.4736 24.568C85.4616 23.216 86.8656 22.124 88.3736 21.344C89.2576 20.876 90.9736 20.304 91.9616 20.304C92.0656 20.304 92.1696 20.304 92.2736 20.356C92.3776 20.304 92.4816 20.304 92.6376 20.304C93.3656 20.304 93.8336 20.824 94.3016 21.344C97.4216 24.36 97.8376 28.832 97.8376 32.992C97.8376 38.66 97.2136 45.42 94.1456 50.36C93.6776 51.192 93.1056 51.972 92.4296 52.648C91.1296 53.844 89.7256 54.78 87.8536 54.78C86.5016 54.78 85.4096 54.208 84.3696 53.272C81.3016 50.568 80.7296 44.12 80.7296 40.22ZM92.7936 24.412C92.5336 24.048 92.2216 23.788 91.9616 23.476C91.8056 23.476 91.6496 23.528 91.4936 23.528C89.6736 23.944 88.1656 24.932 87.0216 26.44C84.4736 29.716 83.8496 36.164 83.8496 40.22C83.8496 43.288 84.1616 48.54 86.3456 50.828C86.7616 51.244 87.2296 51.66 87.8536 51.66C88.9456 51.66 89.8296 50.88 90.5056 50.1C93.4176 46.824 94.0936 41.936 94.4576 37.724C94.6136 36.164 94.7176 34.552 94.7176 32.992C94.7176 29.976 94.6136 26.96 92.7936 24.412ZM102.767 46.98C102.767 44.536 103.443 41.884 104.067 39.492C104.899 36.736 110.515 21.292 111.867 19.888C112.231 19.576 112.543 19.316 113.063 19.316C113.895 19.316 114.623 20.044 114.623 20.876C114.623 21.084 114.623 21.24 114.571 21.396C114.363 21.916 114.051 22.384 113.791 22.904C113.271 23.996 112.803 25.088 112.335 26.18C111.503 28.052 110.359 30.912 109.215 34.032C109.735 33.876 110.203 33.824 110.671 33.824C111.087 33.824 111.503 33.876 111.971 33.928C114.467 34.292 116.599 36.372 117.379 38.712C117.951 40.48 118.107 42.3 118.107 44.12C118.107 49.008 115.455 55.04 109.839 55.04C109.267 55.04 108.747 54.936 108.175 54.884C104.847 54.26 102.767 50.152 102.767 46.98ZM110.723 36.944C109.631 36.944 108.643 37.672 107.811 38.088C106.719 41.572 105.887 44.9 105.887 46.98C105.887 48.54 106.771 50.828 108.175 51.556C108.695 51.816 109.215 51.92 109.787 51.92C113.531 51.92 114.987 47.188 114.987 44.12C114.987 41.208 114.519 36.944 110.723 36.944ZM146.017 46.72C146.017 44.9 146.069 43.132 146.121 41.312C146.173 38.608 146.277 36.736 146.277 34.032C146.173 34.032 146.121 34.032 146.017 34.032C143.625 34.188 138.477 34.5 136.085 34.5C135.253 34.5 134.525 33.772 134.525 32.94C134.525 31.328 136.085 31.38 137.281 31.276C139.361 31.12 144.145 30.86 146.277 30.808L146.329 28.052C146.173 28.052 146.069 28.052 145.913 28.052C143.573 28.208 139.153 28.468 136.813 28.468C135.981 28.468 135.253 27.74 135.253 26.908C135.253 25.296 136.761 25.348 137.957 25.296C140.037 25.14 144.249 24.932 146.329 24.88C146.329 22.696 146.381 18.64 146.537 16.456C146.589 15.468 146.953 14.584 148.045 14.584C148.877 14.584 149.605 15.312 149.605 16.144C149.605 16.508 149.605 16.82 149.605 17.184L149.501 19.264C149.501 19.628 149.501 19.94 149.501 20.304L149.397 28.26C149.345 32.264 149.345 36.788 149.241 40.792C149.189 42.664 149.189 44.64 149.085 46.512C149.033 47.448 148.357 48.28 147.369 48.28C146.641 48.28 146.017 47.552 146.017 46.72ZM123.033 38.192C123.033 36.424 122.981 26.076 123.241 25.556C123.501 24.984 124.021 24.568 124.697 24.568C125.529 24.568 126.257 25.296 126.257 26.128C126.257 27.064 126.257 28 126.257 28.936L126.153 34.5V37.932C127.869 37.932 132.081 37.1 133.953 36.736C135.149 36.528 136.345 36.164 137.593 36.164C138.425 36.164 139.153 36.892 139.153 37.724C139.153 38.296 138.841 38.764 138.373 39.076C137.853 39.44 127.141 41.052 125.633 41.052C123.397 41.052 123.033 40.22 123.033 38.192ZM135.669 58.836C135.669 57.9 136.033 57.016 136.241 56.132C136.709 54 137.125 51.868 137.385 49.736C137.437 49.164 137.385 48.54 137.645 48.02C137.905 47.5 138.477 47.188 139.049 47.188C139.881 47.188 140.609 47.916 140.609 48.748C140.609 51.088 139.725 54.78 139.205 57.12C141.753 56.912 144.301 56.704 146.849 56.704C147.681 56.704 148.409 57.432 148.409 58.264C148.409 60.032 146.537 59.876 145.289 59.928L142.221 60.032C140.557 60.136 138.893 60.396 137.229 60.396C136.397 60.396 135.669 59.668 135.669 58.836ZM164.117 17.912C164.117 17.08 164.845 16.352 165.677 16.352C166.353 16.352 166.873 16.768 167.133 17.392C167.185 17.548 167.237 17.652 167.237 17.808C167.341 19.576 167.237 21.396 167.289 23.164C167.289 23.268 167.289 23.424 167.289 23.528L167.341 24.204C167.341 24.308 167.341 24.464 167.341 24.568C167.549 24.568 167.705 24.568 167.913 24.568C170.253 24.464 172.645 24.204 174.985 24.152C174.933 21.76 174.777 19.42 174.777 17.028C174.777 16.196 175.505 15.468 176.337 15.468C177.949 15.468 177.897 16.976 177.949 18.172C178.053 21.604 178.157 25.036 178.157 28.468C178.157 30.184 178.157 32.004 177.689 33.668C177.273 35.176 176.337 35.28 174.985 35.644C172.749 36.216 170.461 36.736 168.121 36.736C166.509 36.736 164.533 36.06 164.533 34.136C164.533 32.108 164.429 30.08 164.377 28.052L164.273 23.996C164.221 21.968 164.117 19.94 164.117 17.912ZM167.757 33.564L168.017 33.616C169.421 33.616 173.633 33.044 174.777 32.472C175.037 30.756 175.037 29.092 175.037 27.376C174.881 27.376 174.725 27.376 174.569 27.376C172.229 27.48 169.837 27.74 167.497 27.792C167.601 29.716 167.653 31.64 167.653 33.564H167.757ZM187.205 42.352C187.205 43.496 186.321 43.86 185.281 43.912L172.801 44.328C172.281 47.916 169.941 61.072 169.785 61.332C169.473 61.852 169.005 62.164 168.381 62.164C167.549 62.164 166.821 61.436 166.821 60.604C166.821 59.304 167.289 57.9 167.549 56.6C167.809 55.3 168.953 47.812 169.577 44.484L165.937 44.64C162.817 44.744 159.749 45.004 156.629 45.004C155.797 45.004 155.069 44.276 155.069 43.444C155.069 42.3 155.953 41.936 156.993 41.884L175.817 41.156C178.937 41.052 182.525 40.792 185.645 40.792C186.477 40.792 187.205 41.52 187.205 42.352ZM217.157 53.48C217.157 46.928 217.365 40.324 217.573 33.72C217.261 33.772 216.949 33.772 216.637 33.772L213.413 34.084L209.721 34.5C209.149 34.552 208.577 34.656 208.005 34.656C207.173 34.656 206.445 33.98 206.445 33.096C206.445 32.524 206.757 32.004 207.277 31.692C207.745 31.484 214.713 30.756 217.729 30.548L217.937 24.724L218.093 18.432C218.145 17.34 218.197 15.988 219.705 15.988C220.537 15.988 221.265 16.664 221.265 17.548C221.265 20.408 221.109 23.32 221.005 26.232C220.693 35.28 220.277 44.38 220.277 53.48V56.132C220.277 57.276 220.173 58.524 218.717 58.524C217.365 58.524 217.157 57.484 217.157 56.34V53.48ZM205.665 35.124C205.665 36.84 203.845 36.684 202.597 36.788L199.789 36.944C198.333 37.048 196.929 37.256 195.525 37.308V38.972C195.525 40.012 195.525 41.104 195.473 42.144C198.749 41.728 202.857 41.156 206.133 41.156C206.965 41.156 207.693 41.832 207.693 42.716C207.693 43.6 207.069 44.172 206.237 44.276C203.377 44.536 200.569 44.64 197.709 45.004C196.409 45.16 195.057 45.524 193.757 45.524C192.925 45.524 192.197 44.848 192.197 43.964C192.197 43.288 192.301 42.612 192.353 41.936C192.405 40.168 192.405 38.4 192.405 36.684C192.405 34.344 192.353 32.056 192.301 29.768C192.249 28.936 192.145 28.104 192.145 27.22C192.145 26.388 192.821 25.66 193.705 25.66C195.941 25.66 198.177 25.348 200.413 25.088C201.193 25.036 201.973 24.88 202.753 24.88C203.585 24.88 204.313 25.556 204.313 26.44C204.313 27.896 203.065 28 201.921 28.104C199.737 28.312 197.553 28.572 195.369 28.728C195.473 30.548 195.525 32.368 195.525 34.136C195.681 34.136 195.889 34.136 196.045 34.084C198.697 33.876 201.453 33.564 204.105 33.564C204.937 33.564 205.665 34.24 205.665 35.124ZM251.061 9.12C249.941 10.08 247.461 12.56 246.021 12.56C244.741 12.56 243.621 11.44 243.621 10.16C243.621 9.52 243.861 9.12 244.181 8.64C244.341 8.4 252.741 1.44 253.221 1.2C253.621 1.04 254.021 0.879997 254.421 0.879997C255.701 0.879997 256.821 1.92 256.821 3.28C256.821 4.56 256.501 5.84 256.261 7.12L254.741 15.84C253.141 25.04 251.381 34.32 250.021 43.6L248.661 52.32C248.421 53.92 248.101 55.52 246.101 55.52C244.821 55.52 243.701 54.48 243.701 53.12C243.701 51.76 244.101 50.4 244.341 49.04L245.461 41.52C247.141 30.72 249.141 19.92 251.061 9.12ZM268.174 43.2C268.174 39.44 269.214 35.36 270.174 31.68C271.454 27.44 280.094 3.68 282.174 1.52C282.734 1.04 283.214 0.639996 284.014 0.639996C285.294 0.639996 286.414 1.76 286.414 3.04C286.414 3.36 286.414 3.6 286.334 3.84C286.014 4.64 285.534 5.36 285.134 6.16C284.334 7.84 283.614 9.52 282.894 11.2C281.614 14.08 279.854 18.48 278.094 23.28C278.894 23.04 279.614 22.96 280.334 22.96C280.974 22.96 281.614 23.04 282.334 23.12C286.174 23.68 289.454 26.88 290.654 30.48C291.534 33.2 291.774 36 291.774 38.8C291.774 46.32 287.694 55.6 279.054 55.6C278.174 55.6 277.374 55.44 276.494 55.36C271.374 54.4 268.174 48.08 268.174 43.2ZM280.414 27.76C278.734 27.76 277.214 28.88 275.934 29.52C274.254 34.88 272.974 40 272.974 43.2C272.974 45.6 274.334 49.12 276.494 50.24C277.294 50.64 278.094 50.8 278.974 50.8C284.734 50.8 286.974 43.52 286.974 38.8C286.974 34.32 286.254 27.76 280.414 27.76ZM320.907 46.72C320.907 44.9 320.959 43.132 321.011 41.312C321.063 38.608 321.167 36.736 321.167 34.032C321.063 34.032 321.011 34.032 320.907 34.032C318.515 34.188 313.367 34.5 310.975 34.5C310.143 34.5 309.415 33.772 309.415 32.94C309.415 31.328 310.975 31.38 312.171 31.276C314.251 31.12 319.035 30.86 321.167 30.808L321.219 28.052C321.063 28.052 320.959 28.052 320.803 28.052C318.463 28.208 314.043 28.468 311.703 28.468C310.871 28.468 310.143 27.74 310.143 26.908C310.143 25.296 311.651 25.348 312.847 25.296C314.927 25.14 319.139 24.932 321.219 24.88C321.219 22.696 321.271 18.64 321.427 16.456C321.479 15.468 321.843 14.584 322.935 14.584C323.767 14.584 324.495 15.312 324.495 16.144C324.495 16.508 324.495 16.82 324.495 17.184L324.391 19.264C324.391 19.628 324.391 19.94 324.391 20.304L324.287 28.26C324.235 32.264 324.235 36.788 324.131 40.792C324.079 42.664 324.079 44.64 323.975 46.512C323.923 47.448 323.247 48.28 322.259 48.28C321.531 48.28 320.907 47.552 320.907 46.72ZM297.923 38.192C297.923 36.424 297.871 26.076 298.131 25.556C298.391 24.984 298.911 24.568 299.587 24.568C300.419 24.568 301.147 25.296 301.147 26.128C301.147 27.064 301.147 28 301.147 28.936L301.043 34.5V37.932C302.759 37.932 306.971 37.1 308.843 36.736C310.039 36.528 311.235 36.164 312.483 36.164C313.315 36.164 314.043 36.892 314.043 37.724C314.043 38.296 313.731 38.764 313.263 39.076C312.743 39.44 302.031 41.052 300.523 41.052C298.287 41.052 297.923 40.22 297.923 38.192ZM310.559 58.836C310.559 57.9 310.923 57.016 311.131 56.132C311.599 54 312.015 51.868 312.275 49.736C312.327 49.164 312.275 48.54 312.535 48.02C312.795 47.5 313.367 47.188 313.939 47.188C314.771 47.188 315.499 47.916 315.499 48.748C315.499 51.088 314.615 54.78 314.095 57.12C316.643 56.912 319.191 56.704 321.739 56.704C322.571 56.704 323.299 57.432 323.299 58.264C323.299 60.032 321.427 59.876 320.179 59.928L317.111 60.032C315.447 60.136 313.783 60.396 312.119 60.396C311.287 60.396 310.559 59.668 310.559 58.836ZM360.431 33.096C358.039 33.096 355.647 32.992 353.255 32.94H353.203V46.616C353.203 47.656 352.839 48.644 351.643 48.644C350.811 48.644 350.083 47.968 350.083 47.084V22.488C350.083 20.668 349.979 17.86 350.187 16.092C350.291 15.26 350.863 14.584 351.747 14.584C352.579 14.584 353.307 15.26 353.307 16.144C353.307 18.12 353.203 20.46 353.203 22.488V29.768L359.287 29.924C360.431 29.976 361.991 29.924 361.991 31.536C361.991 32.368 361.315 33.096 360.431 33.096ZM337.811 26.596C335.991 26.7 334.119 26.856 332.299 27.012C331.415 27.064 330.583 27.22 329.699 27.22C328.867 27.22 328.139 26.492 328.139 25.66C328.139 24.048 329.699 24.1 330.895 23.996C333.651 23.788 336.407 23.424 339.163 23.424C340.359 23.424 341.399 23.892 341.399 25.244C341.399 27.272 337.135 36.58 336.147 38.92C335.731 39.856 335.367 40.844 335.003 41.78L334.587 43.028C334.327 43.652 333.807 44.12 333.079 44.12C332.247 44.12 331.519 43.392 331.519 42.56C331.519 41.312 336.927 29.144 337.811 26.596ZM341.503 58.888C341.503 57.952 341.815 57.068 342.023 56.184C342.491 54.104 343.063 52.024 343.271 49.892C343.323 49.32 343.271 48.592 343.531 48.072C343.791 47.552 344.363 47.24 344.935 47.24C345.767 47.24 346.495 47.968 346.495 48.8C346.495 51.608 345.559 54.468 344.987 57.172C347.535 56.964 350.135 56.756 352.683 56.756C353.515 56.756 354.243 57.484 354.243 58.316C354.243 60.084 352.371 59.928 351.123 59.98L348.055 60.084C346.391 60.188 344.727 60.448 343.063 60.448C342.231 60.448 341.503 59.72 341.503 58.888ZM107.713 133.48C107.713 127.76 107.869 121.936 108.077 116.164C106.985 116.216 105.997 116.372 105.009 116.476C102.825 116.788 99.2366 117.1 97.5726 117.1C96.7406 117.1 96.0126 116.424 96.0126 115.54C96.0126 114.968 96.3246 114.448 96.8446 114.136C97.2606 113.928 105.373 113.252 108.181 113.044L108.493 104.724L108.649 98.432C108.701 97.34 108.753 95.988 110.261 95.988C111.093 95.988 111.821 96.664 111.821 97.548C111.821 100.408 111.665 103.32 111.561 106.232C111.249 115.28 110.833 124.38 110.833 133.48V136.132C110.833 137.276 110.729 138.524 109.273 138.524C107.921 138.524 107.713 137.484 107.713 136.34V133.48ZM96.3246 125.42C95.9086 125.42 95.5446 125.264 95.2326 124.952C95.0246 124.796 91.9046 120.22 90.1366 117.568C89.4606 119.076 88.7326 120.532 88.0046 121.988C87.3806 123.288 86.8086 124.692 86.0806 125.94C85.7686 126.408 85.3006 126.772 84.6766 126.772C83.8446 126.772 83.1166 126.096 83.1166 125.212C83.1166 124.952 83.1686 124.744 83.2726 124.484C84.1046 122.768 85.0406 121 85.8726 119.232C87.6926 115.592 89.4606 111.848 91.1766 108.156C88.6806 108.104 86.1846 107.948 83.6886 107.844C82.5446 107.792 81.0366 107.792 81.0366 106.232C81.0366 105.4 81.7126 104.672 82.5966 104.672C85.5086 104.672 88.4206 105.036 91.3326 105.036C91.4886 105.036 91.5926 105.036 91.7486 105.036L92.6326 104.932C92.7886 104.932 92.8926 104.932 93.0486 104.932C94.1406 104.932 95.0766 105.608 95.0766 106.752C95.0766 107.064 95.0246 107.324 94.9206 107.584C94.0886 109.716 92.9966 111.692 92.0086 113.72C91.9046 113.928 91.8006 114.084 91.7486 114.292C92.8926 115.852 97.4166 122.612 97.7286 123.132C97.8326 123.34 97.8846 123.6 97.8846 123.86C97.8846 124.692 97.2086 125.42 96.3246 125.42ZM129.794 99.94L129.378 98.276C129.118 97.288 128.702 96.144 128.702 95.156C128.702 94.324 129.43 93.648 130.262 93.648C131.614 93.648 131.77 94.74 132.03 95.728L132.498 97.704L133.07 99.732C134.318 99.68 135.254 99.628 135.67 99.628C136.658 99.628 137.438 100.356 137.438 101.292C137.438 102.436 136.45 103.736 135.826 104.62C135.67 104.88 135.462 105.088 135.254 105.296C137.386 106.284 141.754 108.468 141.91 108.624C142.222 108.936 142.43 109.3 142.43 109.768C142.43 110.6 141.754 111.328 140.87 111.328C140.662 111.328 140.506 111.276 140.298 111.224C139.726 111.016 135.098 108.78 133.278 107.844L130.522 111.172C129.794 112.004 129.014 113.408 128.13 114.084C127.818 114.292 127.506 114.448 127.142 114.448C126.31 114.448 125.582 113.72 125.582 112.888C125.582 112.576 125.686 112.316 125.842 112.056C126.518 110.912 127.558 109.924 128.39 108.884C130.054 106.908 131.718 104.932 133.278 102.904L133.33 102.852C131.51 102.956 129.742 103.06 127.922 103.216C127.038 103.268 126.102 103.424 125.218 103.424C124.386 103.424 123.658 102.696 123.658 101.864C123.658 101.292 123.97 100.72 124.49 100.46C124.802 100.304 127.246 100.096 129.794 99.94ZM132.602 126.356H132.654C132.758 124.38 132.914 122.3 133.018 120.428L128.39 120.584C125.218 120.688 121.994 120.948 118.822 120.948C117.99 120.948 117.262 120.22 117.262 119.388C117.262 118.244 118.146 117.88 119.186 117.828L138.686 117.1C141.858 116.996 145.082 116.736 148.254 116.736C149.086 116.736 149.814 117.464 149.814 118.296C149.814 119.44 148.93 119.804 147.89 119.856L136.19 120.272C136.086 122.144 135.982 124.068 135.878 126.096H135.93C136.45 126.044 137.022 126.044 137.542 126.044C139.882 126.044 139.726 129.528 139.726 131.088C139.726 132.648 139.57 134 137.906 134.624C137.23 134.884 136.554 135.04 135.878 135.248C134.214 135.716 132.498 136.08 130.886 136.704C130.886 137.692 130.886 138.628 130.99 139.616C133.486 138.992 136.242 138.212 138.842 138.212C139.674 138.212 140.402 138.94 140.402 139.72C140.402 141.488 138.582 141.28 137.334 141.436C136.398 141.54 135.514 141.748 134.578 141.956C133.694 142.112 130.73 142.996 130.106 142.996C127.454 142.996 127.714 138.576 127.714 136.86C127.714 134.832 128.234 134.468 130.106 133.74C132.186 132.96 134.422 132.544 136.554 131.868C136.606 131.556 136.606 131.192 136.606 130.828C136.606 130.256 136.606 129.684 136.554 129.164C134.994 129.216 133.434 129.32 131.874 129.476C131.198 129.528 130.47 129.684 129.794 129.684C128.962 129.684 128.234 129.008 128.234 128.176C128.234 126.72 129.534 126.668 130.678 126.564C130.834 126.564 130.99 126.512 131.146 126.512L132.134 126.408C132.29 126.408 132.446 126.356 132.602 126.356ZM185.945 113.096C183.553 113.096 181.161 112.992 178.717 112.94H178.665V126.616C178.665 127.656 178.301 128.644 177.105 128.644C176.273 128.644 175.545 127.968 175.545 127.084C175.545 125.524 175.545 123.912 175.545 122.352L175.597 112.94C175.597 111.38 175.597 109.768 175.597 108.208C175.597 104.412 175.441 100.356 175.701 96.612C175.753 95.572 176.013 94.636 177.261 94.636C178.093 94.636 178.821 95.312 178.821 96.196C178.821 98.172 178.665 100.46 178.665 102.488V109.768L184.801 109.924C185.945 109.976 187.505 109.924 187.505 111.536C187.505 112.368 186.829 113.096 185.945 113.096ZM152.665 120.532C152.665 119.908 153.809 117.048 154.069 116.268L156.773 108.52L158.385 103.944C158.749 102.904 158.957 101.136 160.465 101.136C161.297 101.136 162.025 101.812 162.025 102.696C162.025 103.32 160.881 106.18 160.621 106.96L159.945 108.936H159.997C160.569 109.248 168.993 115.124 169.201 115.384C169.461 115.696 169.617 116.008 169.617 116.424C169.617 117.256 168.941 117.984 168.057 117.984C167.797 117.984 167.537 117.932 167.277 117.776C166.809 117.516 161.037 113.512 158.853 111.952L157.917 114.708L156.305 119.284C155.941 120.324 155.733 122.092 154.225 122.092C153.393 122.092 152.665 121.416 152.665 120.532ZM166.965 138.888C166.965 138.004 167.277 137.172 167.433 136.34C167.901 134.208 168.473 132.024 168.681 129.892C168.733 129.32 168.681 128.592 168.941 128.072C169.201 127.552 169.773 127.24 170.345 127.24C171.177 127.24 171.905 127.968 171.905 128.8C171.905 131.608 171.021 134.416 170.449 137.172C172.997 136.964 175.597 136.756 178.145 136.756C178.977 136.756 179.705 137.484 179.705 138.316C179.705 140.084 177.833 139.928 176.585 139.98L173.517 140.084C171.853 140.188 170.189 140.448 168.525 140.448C167.693 140.448 166.965 139.72 166.965 138.888ZM232.67 137.172C232.67 133.636 232.826 130.1 232.878 126.564L233.138 114.552C231.318 114.604 229.446 114.708 227.626 114.708V117.672C227.626 118.504 227.626 119.284 227.626 120.116L227.678 123.964C227.678 124.796 227.678 125.576 227.678 126.408C227.678 126.876 227.73 131.14 227.574 131.4C227.314 132.024 226.846 132.44 226.118 132.44C225.442 132.44 224.922 132.024 224.662 131.4C224.506 131.036 224.506 124.12 224.506 123.288C224.506 120.012 224.506 102.54 224.974 101.552C225.286 100.98 225.754 100.564 226.43 100.564C227.262 100.564 227.99 101.24 227.99 102.124C227.99 103.528 227.834 104.88 227.782 106.284C227.73 107.688 227.678 110.184 227.678 111.588L233.19 111.432L233.294 105.036L233.398 100.096L233.45 97.964C233.45 96.768 233.45 95.312 235.01 95.312C235.842 95.312 236.57 95.988 236.57 96.872C236.57 100.408 236.414 103.944 236.362 107.48L235.946 129.008L235.842 133.948L235.79 136.08C235.79 137.276 235.79 138.732 234.23 138.732C233.398 138.732 232.67 138.056 232.67 137.172ZM204.902 108.676C204.07 108.676 203.342 108 203.342 107.116C203.342 106.44 203.706 105.972 204.278 105.66C204.694 105.452 215.406 105.244 216.862 105.244C217.694 105.244 218.422 105.92 218.422 106.804C218.422 107.48 218.058 107.948 217.486 108.26C217.174 108.416 212.91 108.52 209.374 108.624C209.478 111.796 209.53 121.26 209.582 122.82C212.65 122.092 215.666 121.104 218.682 120.272C219.254 120.116 221.334 119.492 221.854 119.492C222.686 119.492 223.414 120.22 223.414 121.052C223.414 121.676 223.154 121.988 222.686 122.352C222.426 122.56 212.754 125.264 211.454 125.628C210.518 125.888 209.53 126.148 208.542 126.148C206.982 126.148 206.618 125.316 206.514 123.912C206.41 122.196 206.41 120.532 206.358 118.816C206.306 115.436 206.254 112.056 206.254 108.676H204.902ZM250.611 108.26L245.307 108.676C244.475 108.728 243.643 108.884 242.811 108.884C241.979 108.884 241.251 108.156 241.251 107.324C241.251 105.764 242.655 105.764 243.851 105.66C245.411 105.556 247.023 105.348 248.635 105.244L247.699 101.968C247.387 100.98 245.463 95.312 245.463 94.844C245.463 94.012 246.191 93.284 247.023 93.284C247.543 93.284 247.959 93.544 248.271 93.96C248.583 94.428 251.079 102.176 251.807 105.036H252.275C253.315 105.036 254.407 105.4 254.407 106.648C254.407 107.012 254.303 107.376 254.199 107.74C253.523 109.664 252.535 111.536 251.651 113.408C253.315 114.864 258.879 119.752 259.087 120.012C259.295 120.324 259.399 120.584 259.399 120.948C259.399 121.78 258.671 122.508 257.839 122.508C257.527 122.508 257.215 122.404 256.955 122.248C256.591 122.04 252.275 118.296 250.195 116.372L247.543 121.52C247.075 122.456 246.607 123.496 245.931 124.276C245.619 124.64 245.203 124.848 244.735 124.848C243.903 124.848 243.175 124.12 243.175 123.288C243.175 123.028 243.227 122.768 243.331 122.56C243.903 121.312 244.735 120.168 245.359 118.972C247.231 115.436 248.947 111.9 250.611 108.26ZM263.299 122.092C263.299 121.156 263.351 120.272 263.403 119.336C263.507 117.724 263.507 116.06 263.559 114.448C263.663 108.988 263.767 103.528 263.871 97.964C263.871 96.924 264.287 95.988 265.483 95.988C266.315 95.988 267.043 96.716 267.043 97.548C267.043 98.484 267.043 99.368 266.991 100.304C266.887 102.124 266.835 103.944 266.835 105.764L266.783 106.96C266.783 107.168 266.783 107.324 266.783 107.532C268.499 107.532 270.163 107.636 271.879 107.688V105.608C271.879 103.32 271.879 100.98 271.931 98.692C271.931 97.6 271.879 96.456 271.983 95.364C272.035 94.532 272.659 93.856 273.543 93.856C274.375 93.856 275.103 94.532 275.103 95.416C275.103 98.796 275.051 102.176 274.999 105.608L274.739 126.252C274.739 126.72 274.687 127.188 274.427 127.552C274.531 127.76 274.583 128.02 274.583 128.332C274.583 128.332 274.583 128.384 274.583 128.436L274.531 128.592C274.531 128.644 274.531 128.644 274.531 128.696C273.959 131.608 273.387 134.52 272.971 137.432C272.867 138.212 272.711 141.02 272.399 141.54C272.139 142.06 271.567 142.372 270.995 142.372C270.163 142.372 269.435 141.644 269.435 140.812C269.435 139.512 269.747 138.264 269.903 137.016C270.267 134.624 270.683 132.232 271.151 129.84C269.019 129.996 266.939 130.464 264.807 130.464H264.599C263.767 130.464 263.039 129.736 263.039 128.904C263.039 128.124 263.611 127.448 264.391 127.344C266.783 127.032 269.175 126.772 271.619 126.72C271.619 126.668 271.619 126.668 271.619 126.616L271.827 110.86C270.267 110.808 268.707 110.756 267.095 110.704C266.991 110.704 266.887 110.704 266.783 110.704C266.731 114.396 266.679 118.036 266.367 121.676C266.263 122.716 266.055 123.652 264.859 123.652C264.027 123.652 263.299 122.924 263.299 122.092ZM309.538 137.276C309.538 133.74 309.694 130.152 309.746 126.616L310.11 105.244L310.214 100.356L310.266 98.224C310.318 97.028 310.266 95.572 311.826 95.572C312.658 95.572 313.386 96.248 313.386 97.132C313.386 100.668 313.23 104.256 313.178 107.792L312.814 129.164L312.71 134.052L312.658 136.184C312.606 137.38 312.658 138.836 311.098 138.836C310.266 138.836 309.538 138.16 309.538 137.276ZM287.438 110.704C287.282 110.704 286.762 110.912 286.554 111.016C284.37 111.9 283.434 113.772 283.434 116.008C283.434 118.036 283.85 120.064 286.294 120.064C289.258 120.064 290.194 117.308 290.194 114.812C290.194 113.356 289.31 111.744 288.062 111.016C287.958 110.964 287.542 110.704 287.438 110.704ZM293.314 114.864C293.418 119.544 290.714 123.184 286.294 123.184C281.978 123.184 280.314 119.856 280.314 116.008C280.314 111.692 282.914 108.312 287.178 107.584H287.386C289.882 107.584 293.21 110.6 293.314 114.864ZM301.582 115.072C299.97 115.124 296.382 115.228 295.342 115.228C294.302 115.228 293.73 114.24 293.886 113.408C294.146 112.056 295.446 112.16 296.538 112.108C297.214 112.108 300.594 111.952 302.05 111.9C302.05 107.74 302.154 101.812 302.414 101.292C302.674 100.668 303.194 100.252 303.87 100.252C304.702 100.252 305.43 100.928 305.43 101.812C305.43 103.528 305.326 105.296 305.274 107.064L305.17 115.852C305.118 118.452 304.962 121 304.962 123.548C304.962 124.9 305.17 127.812 303.35 127.812C301.842 127.812 301.79 126.512 301.79 125.368C301.79 125.212 301.79 125.108 301.79 124.952L301.842 124.016C301.842 123.86 301.842 123.756 301.842 123.6L302.05 115.384V115.072H301.582ZM62.113 189.196C59.773 189.196 57.329 188.832 54.989 188.676C54.937 188.676 54.937 188.676 54.885 188.676V192.524C56.913 192.576 58.993 192.836 60.969 192.992C62.113 193.096 63.673 193.044 63.673 194.656C63.673 195.488 62.945 196.216 62.113 196.216C59.773 196.216 57.329 195.904 54.989 195.748C54.937 195.748 54.937 195.748 54.885 195.748V206.668C54.885 206.876 54.885 207.136 54.833 207.344C55.041 207.604 55.145 207.916 55.145 208.332C55.145 208.488 55.145 208.592 55.093 208.748C54.521 210.984 54.053 213.168 53.637 215.456C53.481 216.288 52.805 221.176 52.649 221.488C52.337 222.008 51.869 222.32 51.245 222.32C50.413 222.32 49.685 221.592 49.685 220.76C49.685 220.084 49.789 219.46 49.893 218.784C50.361 215.768 50.985 212.752 51.609 209.788C49.737 209.84 47.917 209.944 46.045 210.1C45.161 210.204 44.225 210.36 43.341 210.36C42.509 210.36 41.781 209.632 41.781 208.8C41.781 208.176 42.093 207.708 42.613 207.396C43.237 207.032 49.477 206.668 51.765 206.616V182.488C51.765 180.668 51.661 177.912 51.869 176.144C51.973 175.312 52.545 174.636 53.429 174.636C54.261 174.636 54.989 175.468 54.989 176.56C54.989 179.004 54.885 181.864 54.885 184.36V185.452C56.913 185.556 58.993 185.816 60.969 185.972C62.113 186.076 63.673 186.024 63.673 187.636C63.673 188.468 62.945 189.196 62.113 189.196ZM31.121 193.2C31.121 191.692 31.329 190.236 31.901 188.832C32.785 186.648 35.489 184.62 37.881 184.62C40.741 184.62 43.705 187.324 43.705 190.236C43.705 192.264 42.821 196.216 41.781 197.932C40.637 199.856 39.389 200.74 37.101 200.74C35.801 200.74 34.657 200.064 33.669 199.336C31.329 197.568 31.121 196.008 31.121 193.2ZM37.517 187.74C37.205 187.792 36.581 188.156 36.321 188.312C34.553 189.508 34.241 191.224 34.241 193.252C34.241 194.032 34.241 195.54 34.761 196.164C35.021 196.476 35.437 196.736 35.749 196.996C36.165 197.256 36.633 197.62 37.153 197.62C37.465 197.62 38.089 197.516 38.349 197.308C39.545 196.424 40.585 191.744 40.585 190.236C40.585 188.988 38.921 187.74 37.777 187.74H37.517ZM84.7677 175.28C84.7677 176.16 85.1677 176.96 85.1677 177.84C85.1677 179.2 84.1277 180.24 82.7677 180.24C80.3677 180.24 79.9677 177.28 79.9677 175.36C79.9677 172.8 81.1677 170.32 82.5277 168.16C85.0877 164 88.2077 161.52 93.2477 161.52C99.9677 161.52 104.368 168.48 104.368 174.64C104.368 177.92 102.368 184.08 100.848 187.04C99.1677 190.64 97.0877 194 95.0077 197.44C92.9277 200.96 89.9677 206.24 87.4077 209.28C90.9277 209.12 94.4477 209.12 97.9677 209.12C100.688 209.04 103.408 208.96 106.208 208.96C107.488 208.96 108.608 210.08 108.608 211.36C108.608 212.48 107.968 213.2 107.008 213.6C106.208 214 92.7677 213.92 90.5277 214C88.4477 214 86.2877 214.24 84.2077 214.24C82.3677 214.24 80.2077 213.68 80.2077 211.52C80.2077 210.96 80.3677 210.48 80.6877 210C81.0877 209.28 81.8077 208.64 82.3677 208L84.7677 204.8C86.9277 201.92 88.6877 198.72 90.5277 195.68C93.8877 189.92 97.4877 184.32 99.0077 177.76C99.2477 176.72 99.5677 175.6 99.5677 174.56C99.5677 171.12 97.0877 166.32 93.2477 166.32C89.4077 166.32 87.6477 168.64 85.9677 171.76C85.4077 172.88 84.7677 174 84.7677 175.28ZM124.023 216.24C117.783 216.24 115.223 208.8 115.223 203.6C115.223 198.88 117.143 193.68 120.503 190.08C117.463 187.92 115.463 184.32 115.463 180.48C115.463 177.2 116.503 173.76 117.783 170.72C119.303 167.2 122.023 164.16 125.543 162.4C126.183 162.08 127.063 161.68 127.863 161.68H128.023C128.423 161.28 129.063 161.04 129.703 161.04C131.143 161.04 133.943 161.76 135.223 162.48C139.383 164.8 140.823 168.16 140.823 172.72C140.823 176.88 139.143 183.04 136.343 186.88C138.183 189.28 138.983 194.32 138.983 196.24C138.983 202 137.063 207.6 133.143 211.92C130.983 214.24 127.303 216.24 124.023 216.24ZM136.023 172.72C136.023 166.4 132.103 166.48 129.463 165.84C129.063 166.16 128.423 166.4 127.783 166.64C123.063 168.72 120.263 175.52 120.263 180.48C120.263 184 123.223 187.36 126.823 187.36C127.623 187.36 128.583 186.96 129.303 186.64C133.863 184.4 136.023 177.52 136.023 172.72ZM126.823 192.16C126.343 192.16 125.943 192.16 125.463 192.08C121.863 195.04 120.023 199.2 120.023 203.84C120.023 206.08 121.223 211.44 124.023 211.44C125.223 211.44 126.343 210.96 127.383 210.4C132.103 207.6 134.183 201.52 134.183 196.24C134.183 194.08 133.783 192.08 132.743 190.24L132.023 190.64C130.583 191.44 128.503 192.16 126.823 192.16ZM148.191 192.8C148.191 184.88 149.311 175.36 153.951 168.72C155.471 166.64 157.631 164.96 159.951 163.76C161.311 163.04 163.951 162.16 165.471 162.16C165.631 162.16 165.791 162.16 165.951 162.24C166.111 162.16 166.271 162.16 166.511 162.16C167.631 162.16 168.351 162.96 169.071 163.76C173.871 168.4 174.511 175.28 174.511 181.68C174.511 190.4 173.551 200.8 168.831 208.4C168.111 209.68 167.231 210.88 166.191 211.92C164.191 213.76 162.031 215.2 159.151 215.2C157.071 215.2 155.391 214.32 153.791 212.88C149.071 208.72 148.191 198.8 148.191 192.8ZM166.751 168.48C166.351 167.92 165.871 167.52 165.471 167.04C165.231 167.04 164.991 167.12 164.751 167.12C161.951 167.76 159.631 169.28 157.871 171.6C153.951 176.64 152.991 186.56 152.991 192.8C152.991 197.52 153.471 205.6 156.831 209.12C157.471 209.76 158.191 210.4 159.151 210.4C160.831 210.4 162.191 209.2 163.231 208C167.711 202.96 168.751 195.44 169.311 188.96C169.551 186.56 169.711 184.08 169.711 181.68C169.711 177.04 169.551 172.4 166.751 168.48ZM197.808 182.748C195.884 182.904 193.908 183.06 191.984 183.216C191.048 183.32 190.06 183.476 189.124 183.476C188.292 183.476 187.564 182.748 187.564 181.916C187.564 180.356 189.02 180.356 190.216 180.252C193.388 179.992 196.612 179.524 199.784 179.524C200.772 179.524 201.604 180.304 201.604 181.344C201.604 182.124 201.24 182.852 200.928 183.528C199.992 185.556 198.692 187.376 197.444 189.248L202.124 192.16C203.372 192.94 206.232 194.396 207.168 195.28C207.48 195.592 207.688 196.008 207.688 196.424C207.688 197.256 206.96 197.984 206.128 197.984C205.868 197.984 205.608 197.932 205.4 197.828C204.776 197.516 204.204 197.048 203.58 196.684L199.888 194.396C198.9 193.772 196.924 192.732 195.676 191.9C194.376 193.824 193.128 195.748 191.88 197.672C191.152 198.764 190.476 200.168 189.592 201.104C189.28 201.416 188.916 201.624 188.448 201.624C187.616 201.624 186.888 200.896 186.888 200.064C186.888 199.804 186.94 199.544 187.044 199.336C187.72 197.828 188.916 196.476 189.852 195.072L194.324 188.312C195.52 186.492 196.768 184.672 197.808 182.748ZM212.784 210.464C212.784 211.816 211.588 212.076 210.496 212.076C203.58 212.076 196.612 212.284 189.696 212.96C188.292 213.116 186.992 213.22 185.588 213.428C185.38 213.48 185.172 213.532 184.964 213.532C184.028 213.688 183.04 214.052 182.156 214.052C181.324 214.052 180.596 213.324 180.596 212.492C180.596 211.036 182.052 210.88 183.144 210.672C183.664 210.568 184.132 210.464 184.652 210.412C188.812 208.592 190.996 205.16 193.492 201.572C194.168 200.584 195.364 198.192 196.664 198.192C197.496 198.192 198.224 198.92 198.224 199.752C198.224 200.636 197.08 201.884 196.56 202.612C194.844 205.004 193.18 207.552 191.1 209.632C197.808 209.008 204.516 208.904 211.224 208.904C212.056 208.904 212.784 209.632 212.784 210.464ZM217.463 206.668C217.463 205.576 218.295 205.16 219.283 205.108L236.027 204.016L241.591 203.652C242.163 203.6 242.735 203.6 243.307 203.548L243.567 185.868L243.619 180.928L243.671 178.848C243.723 177.652 243.619 176.144 245.231 176.144C246.063 176.144 246.791 176.872 246.791 177.704C246.791 181.24 246.687 184.776 246.635 188.312L246.323 209.684L246.271 214.624L246.219 216.704C246.167 217.9 246.271 219.408 244.659 219.408C243.827 219.408 243.099 218.68 243.099 217.848C243.099 214.312 243.203 210.776 243.255 207.24V206.668L227.291 207.708L221.727 208.072C220.791 208.124 219.907 208.228 219.023 208.228C218.191 208.228 217.463 207.552 217.463 206.668ZM221.831 190.34C221.831 186.44 224.535 182.488 228.747 182.488C233.115 182.488 235.507 187.272 235.507 191.068C235.507 194.812 232.647 197.62 228.903 197.62C224.795 197.62 221.831 194.448 221.831 190.34ZM228.695 185.608C228.279 185.608 227.915 185.66 227.551 185.764C225.887 186.648 224.951 188.468 224.951 190.288C224.951 192.628 226.459 194.5 228.851 194.5C231.087 194.5 232.387 193.044 232.387 190.86C232.387 188.884 231.087 185.608 228.695 185.608ZM294.212 217.276C294.212 213.74 294.368 210.152 294.42 206.616L294.784 185.244L294.888 180.356L294.94 178.224C294.992 177.028 294.94 175.572 296.5 175.572C297.332 175.572 298.06 176.248 298.06 177.132C298.06 180.668 297.904 184.256 297.852 187.792L297.488 209.164L297.384 214.052L297.332 216.184C297.28 217.38 297.332 218.836 295.772 218.836C294.94 218.836 294.212 218.16 294.212 217.276ZM279.548 199.7C278.716 199.7 277.988 199.024 277.988 198.14C277.988 196.476 279.548 196.58 280.744 196.58C282.928 196.528 285.112 196.476 287.296 196.476V196.216C287.296 195.644 287.244 194.604 287.296 192.784H287.192C285.06 192.836 282.876 192.888 280.692 192.888C279.86 192.888 279.132 192.212 279.132 191.328C279.132 189.768 280.536 189.768 281.732 189.768C283.552 189.716 285.424 189.664 287.348 189.664C287.4 186.024 287.504 181.708 287.66 181.292C287.868 180.668 288.44 180.252 289.116 180.252C289.948 180.252 290.676 180.928 290.676 181.812C290.676 183.58 290.572 185.348 290.52 187.168L290.416 196.32C290.312 199.336 290.208 202.352 290.208 205.368L290.26 206.668C290.26 206.876 290.26 207.084 290.26 207.292C290.26 208.436 290.104 209.58 288.7 209.58C287.088 209.58 287.14 208.072 287.14 206.876C287.14 206.564 287.14 206.252 287.14 205.992L287.088 204.276C287.088 203.964 287.088 203.704 287.088 203.444C287.088 202.196 287.088 200.896 287.14 199.596H287.036C284.54 199.648 282.044 199.7 279.548 199.7ZM264.988 196.008C264.988 191.692 267.588 188.312 271.852 187.584H272.06C275.128 187.584 277.884 191.484 277.988 194.292V195.124C277.988 199.336 275.544 203.184 270.968 203.184C266.652 203.184 264.988 199.856 264.988 196.008ZM272.112 190.704C271.956 190.704 271.436 190.912 271.228 191.016C269.044 191.9 268.108 193.772 268.108 196.008C268.108 198.036 268.524 200.064 270.968 200.064C273.932 200.064 274.868 197.308 274.868 194.812C274.868 193.356 273.984 191.744 272.736 191.016C272.632 190.964 272.216 190.704 272.112 190.704ZM334.997 193.096C332.605 193.096 330.213 192.992 327.769 192.94H327.717V206.616C327.717 207.656 327.353 208.644 326.157 208.644C325.325 208.644 324.597 207.968 324.597 207.084C324.597 205.524 324.597 203.912 324.597 202.352L324.649 192.94C324.649 191.38 324.649 189.768 324.649 188.208C324.649 184.412 324.493 180.356 324.753 176.612C324.805 175.572 325.065 174.636 326.313 174.636C327.145 174.636 327.873 175.312 327.873 176.196C327.873 178.172 327.717 180.46 327.717 182.488V189.768L333.853 189.924C334.997 189.976 336.557 189.924 336.557 191.536C336.557 192.368 335.881 193.096 334.997 193.096ZM301.717 200.532C301.717 199.908 302.861 197.048 303.121 196.268L305.825 188.52L307.437 183.944C307.801 182.904 308.009 181.136 309.517 181.136C310.349 181.136 311.077 181.812 311.077 182.696C311.077 183.32 309.933 186.18 309.673 186.96L308.997 188.936H309.049C309.621 189.248 318.045 195.124 318.253 195.384C318.513 195.696 318.669 196.008 318.669 196.424C318.669 197.256 317.993 197.984 317.109 197.984C316.849 197.984 316.589 197.932 316.329 197.776C315.861 197.516 310.089 193.512 307.905 191.952L306.969 194.708L305.357 199.284C304.993 200.324 304.785 202.092 303.277 202.092C302.445 202.092 301.717 201.416 301.717 200.532ZM316.017 218.888C316.017 218.004 316.329 217.172 316.485 216.34C316.953 214.208 317.525 212.024 317.733 209.892C317.785 209.32 317.733 208.592 317.993 208.072C318.253 207.552 318.825 207.24 319.397 207.24C320.229 207.24 320.957 207.968 320.957 208.8C320.957 211.608 320.073 214.416 319.501 217.172C322.049 216.964 324.649 216.756 327.197 216.756C328.029 216.756 328.757 217.484 328.757 218.316C328.757 220.084 326.885 219.928 325.637 219.98L322.569 220.084C320.905 220.188 319.241 220.448 317.577 220.448C316.745 220.448 316.017 219.72 316.017 218.888ZM360.143 216.444C360.143 213.012 360.247 209.58 360.299 206.148L360.611 185.4L360.663 180.616L360.715 178.536C360.715 177.392 360.715 175.936 362.275 175.936C363.107 175.936 363.835 176.612 363.835 177.496C363.835 180.928 363.731 184.36 363.679 187.792L363.367 208.54L363.315 213.324L363.263 215.404C363.263 216.548 363.263 218.004 361.703 218.004C360.871 218.004 360.143 217.328 360.143 216.444ZM338.875 195.956C338.875 191.64 341.423 188.364 345.739 187.584H345.947C349.015 187.584 351.771 191.38 351.875 194.24V195.072C351.875 199.284 349.431 203.132 344.855 203.132C340.591 203.132 338.875 199.804 338.875 195.956ZM346.051 190.704C345.739 190.704 345.115 190.964 344.803 191.12C342.827 192.056 341.995 193.876 341.995 196.008C341.995 197.984 342.411 200.012 344.855 200.012C347.819 200.012 348.755 197.256 348.755 194.812C348.755 193.252 347.975 191.9 346.727 191.068C346.571 190.964 346.207 190.704 346.051 190.704ZM22.7549 258.744C22.7549 259.472 22.2869 260.044 21.6109 260.252C19.2709 260.98 15.8389 261.032 13.3429 261.344C13.2909 261.344 13.2389 261.396 13.1869 261.396H12.8229C12.7709 261.396 12.7189 261.448 12.6669 261.448C12.7189 262.176 12.7709 263.632 12.8229 265.296C12.8749 265.296 12.8749 265.296 12.9269 265.296L13.0829 265.244C13.1349 265.244 13.1869 265.244 13.1869 265.244L16.0989 264.776C17.6069 264.516 19.2709 264.048 20.8309 264.048C21.6629 264.048 22.3909 264.776 22.3909 265.608C22.3909 267.272 20.5709 267.22 19.3749 267.428L16.4629 267.896C15.3189 268.052 14.1229 268.364 12.9269 268.52C12.9789 270.652 13.0309 272.576 13.0309 273.148C15.2149 272.784 17.3989 272.316 19.5309 271.796C20.2069 271.64 21.6109 271.12 22.2349 271.12C23.0669 271.12 23.7949 271.848 23.7949 272.68C23.7949 273.824 22.8589 274.136 21.9229 274.396C19.0629 275.176 14.9029 276.372 11.9909 276.372C11.1069 276.372 10.4309 276.008 10.0669 275.176C9.85892 274.76 9.54692 263.58 9.54692 261.708C8.92292 261.5 8.45492 260.876 8.45492 260.2C8.45492 258.796 9.65092 258.692 10.7429 258.536C14.0709 258.068 17.5029 258.068 20.7789 257.236C20.9349 257.184 21.0389 257.184 21.1949 257.184C22.0269 257.184 22.7549 257.912 22.7549 258.744ZM32.1669 284.536C32.1669 285.68 31.2829 286.044 30.2429 286.096L18.8549 286.46C18.5949 289.788 17.7629 299.876 17.5549 300.344C17.2949 300.864 16.7749 301.28 16.1509 301.28C15.3189 301.28 14.5909 300.552 14.5909 299.72C14.5909 299.408 15.2669 290.568 15.6829 286.668L11.0549 286.824C7.93492 286.928 4.81492 287.188 1.69492 287.188C0.862922 287.188 0.134922 286.46 0.134922 285.628C0.134922 284.484 1.01892 284.12 2.05892 284.068L20.8829 283.34C24.0029 283.236 27.4869 282.976 30.6069 282.976C31.4389 282.976 32.1669 283.704 32.1669 284.536ZM51.7738 287.604C51.7738 286.46 51.7738 285.004 53.3338 285.004C54.0098 285.004 54.5298 285.368 54.7898 285.94C54.8938 286.148 54.9458 288.072 54.9458 289.944C56.5578 289.84 58.1178 289.684 59.6778 289.632C59.6778 288.8 59.6778 287.968 59.6778 287.136C59.6778 286.772 59.6778 286.356 59.7298 285.992C59.7298 284.432 59.7818 282.872 59.8338 281.312C59.9378 278.504 59.9898 275.696 59.9898 272.888L60.0418 264.464C60.0938 261.812 60.0418 259.108 60.2498 256.456C60.3018 255.468 60.6658 254.584 61.7578 254.584C62.5898 254.584 63.3178 255.312 63.3178 256.144C63.3178 256.508 63.3178 256.82 63.3178 257.184L63.2138 259.264C63.2138 259.628 63.2138 259.94 63.2138 260.304L63.1098 268.26C63.0578 272.264 63.0578 276.788 62.9538 280.792C62.9018 282.664 62.9018 284.588 62.7978 286.46C62.7978 286.668 62.7978 286.928 62.7978 287.136L62.8498 289.164C62.8498 289.528 62.8498 289.84 62.8498 290.204C62.8498 292.648 62.9538 299.356 60.1458 300.24L59.3138 300.5C57.8578 300.968 56.0898 301.384 54.5298 301.384C52.6058 301.384 51.8778 300.552 51.8258 298.68C51.7738 296.86 51.7738 294.988 51.7738 293.116V287.604ZM36.5898 270.756C36.5898 269.248 36.7978 267.792 37.3698 266.388C38.2538 264.204 40.9578 262.176 43.3498 262.176C46.2098 262.176 49.1738 264.88 49.1738 267.792C49.1738 269.82 48.2898 273.772 47.2498 275.488C46.1058 277.412 44.8578 278.296 42.5698 278.296C41.2698 278.296 40.1258 277.62 39.1378 276.892C36.7978 275.124 36.5898 273.564 36.5898 270.756ZM42.9858 265.296C42.6738 265.348 42.0498 265.712 41.7898 265.868C40.0218 267.064 39.7098 268.78 39.7098 270.808C39.7098 271.588 39.7098 273.096 40.2298 273.72C40.4898 274.032 40.9058 274.292 41.2178 274.552C41.6338 274.812 42.1018 275.176 42.6218 275.176C42.9338 275.176 43.5578 275.072 43.8178 274.864C45.0138 273.98 46.0538 269.3 46.0538 267.792C46.0538 266.544 44.3898 265.296 43.2458 265.296H42.9858ZM58.8978 297.328H58.9498C59.3658 296.496 59.5738 294.468 59.6258 292.804C58.0658 292.908 56.5058 293.064 54.9458 293.272C54.9458 293.376 54.9458 293.428 54.9458 293.48C54.9458 295.04 54.8938 296.704 54.9458 298.264C56.2978 298.108 57.5978 297.744 58.8978 297.328ZM86.4192 256.82C86.4192 258.224 84.9632 258.432 83.8712 258.588C82.7272 258.796 81.5832 258.9 80.4392 259.004C79.9712 259.056 79.5552 259.056 79.0872 259.108C79.0352 259.836 78.9312 260.616 78.8792 261.344C78.6712 263.424 78.3592 265.504 78.2552 267.584C80.1272 267.428 81.9472 267.272 83.8192 267.064C84.5992 267.012 85.3792 266.856 86.1592 266.856C86.9912 266.856 87.7192 267.532 87.7192 268.416C87.7192 270.08 86.0552 269.976 84.8592 270.132C84.5992 270.132 84.3912 270.184 84.1312 270.184C84.0272 270.6 83.7672 270.964 83.6112 271.328C82.3112 274.292 80.6472 277.1 78.4632 279.492L87.4592 278.712L93.0752 278.192C93.7512 278.14 94.3752 278.036 95.0512 277.984C95.0512 273.772 95.1552 269.092 95.2072 264.932C95.2592 261.916 95.2592 258.848 95.4152 255.78C95.4672 254.792 95.7792 253.856 96.9752 253.856C97.8072 253.856 98.5352 254.532 98.5352 255.416C98.5352 258.38 98.4312 261.344 98.3272 264.256C98.2232 270.912 98.1712 277.516 98.1712 284.12C98.1712 284.692 98.2232 285.212 98.2232 285.732C98.2232 286.876 98.0152 288.072 96.6112 288.072C94.6352 288.072 95.0512 285.472 95.0512 284.172C95.0512 283.028 95.0512 282.404 95.0512 281.208L78.5152 282.612L72.8992 283.132C72.0672 283.184 71.2352 283.34 70.3512 283.34C69.5192 283.34 68.7912 282.664 68.7912 281.78C68.7912 280.636 69.6232 280.272 70.6112 280.168L73.1592 279.96C73.3152 279.856 73.5232 279.7 73.7312 279.596C74.1992 279.232 74.6672 278.868 75.0832 278.504C77.4232 276.268 79.2432 273.512 80.5432 270.6C79.3472 270.704 78.1512 270.808 77.0072 270.808C75.5512 270.808 75.1352 269.352 75.1352 268.156C75.1352 265.4 75.6552 262.696 75.8632 259.94C75.8632 259.784 75.9152 259.576 75.9152 259.42C75.0832 259.42 74.3552 258.744 74.3552 257.86C74.3552 256.04 76.6952 256.144 77.9952 256.04C79.4512 255.884 80.9072 255.884 82.3112 255.676C83.1432 255.572 83.9752 255.26 84.8592 255.26C85.6912 255.26 86.4192 255.936 86.4192 256.82ZM84.3392 299.408C84.3392 298.836 87.3032 288.748 87.5112 288.488C87.8752 288.072 88.2392 287.812 88.8112 287.812C89.6432 287.812 90.3712 288.488 90.3712 289.372C90.3712 290.204 88.3952 296.392 87.9792 297.744L94.8952 297.484C96.0912 297.432 97.2352 297.328 98.3792 297.328C99.2112 297.328 99.9392 298.004 99.9392 298.888C99.9392 299.564 99.5752 300.032 99.0032 300.344C98.5872 300.552 87.3032 300.968 85.8992 300.968C85.0672 300.968 84.3392 300.292 84.3392 299.408ZM140.487 267.532C140.487 265.244 140.487 262.904 140.539 260.616C140.539 259.524 140.487 258.38 140.591 257.288C140.643 256.456 141.267 255.78 142.151 255.78C142.983 255.78 143.711 256.456 143.711 257.34C143.711 260.72 143.607 264.1 143.607 267.532V272.368H143.815C145.843 272.316 147.923 272.264 150.003 272.264H153.643C154.475 272.264 155.203 272.94 155.203 273.824C155.203 275.228 154.059 275.384 152.915 275.384C152.135 275.384 151.355 275.384 150.575 275.384L145.947 275.488C145.167 275.488 144.387 275.488 143.607 275.488V296.496C143.607 297.484 143.191 298.42 142.047 298.42C141.215 298.42 140.487 297.744 140.487 296.86V267.532ZM131.595 282.248C130.763 282.248 123.951 279.024 121.091 277.464C120.415 279.076 119.843 280.376 119.635 281C119.115 282.3 118.699 283.652 118.231 285.004C117.971 285.628 117.451 286.096 116.723 286.096C115.891 286.096 115.163 285.42 115.163 284.536C115.163 284.068 115.371 283.652 115.475 283.236C116.047 281.468 116.723 279.856 117.399 278.14L121.507 268.364C121.871 267.48 123.587 262.748 123.847 262.384C124.159 261.916 124.575 261.656 125.147 261.656C125.979 261.656 126.707 262.332 126.707 263.216C126.707 264.048 124.367 269.716 122.339 274.5L123.223 275.02C125.303 276.216 127.539 277.204 129.723 278.192C130.451 278.504 131.959 278.972 132.531 279.44C132.895 279.752 133.155 280.168 133.155 280.688C133.155 281.52 132.479 282.248 131.595 282.248ZM180.847 286.824C178.819 287.032 176.791 287.448 174.711 287.448C173.879 287.448 173.151 286.772 173.151 285.888C173.151 284.484 174.347 284.38 175.439 284.276C177.207 284.12 178.975 283.756 180.743 283.704C180.743 282.404 180.795 281.104 180.847 279.752C180.951 276.944 181.003 274.136 181.003 271.328L181.055 262.904C181.055 260.252 181.055 259.108 181.263 256.456C181.315 255.468 181.679 254.584 182.771 254.584C183.603 254.584 184.331 255.312 184.331 256.144C184.331 256.508 184.331 256.82 184.331 257.184L184.227 259.264C184.227 259.628 184.227 259.94 184.227 260.304L184.123 266.7C184.071 270.704 184.071 275.228 183.967 279.232C183.915 281.104 183.915 283.08 183.811 284.952C183.915 285.316 183.967 285.836 183.967 286.408C183.967 286.616 183.967 286.876 183.967 287.084L184.019 288.384C184.019 288.592 184.019 288.852 184.019 289.06C184.019 290.516 183.863 291.712 182.459 292.492C180.587 293.636 178.247 293.896 176.271 294.936C176.167 295.924 176.063 296.912 175.959 297.952C177.727 297.744 179.443 297.484 181.159 297.224C181.939 297.068 182.719 296.86 183.499 296.86C184.331 296.86 185.059 297.536 185.059 298.42C185.059 299.772 183.967 299.928 182.875 300.084C180.535 300.448 177.311 301.124 175.023 301.124C173.203 301.124 172.839 299.72 172.839 298.212C172.839 297.276 172.995 296.392 173.099 295.508C173.151 294.624 173.099 293.636 173.723 293.012C175.179 291.504 178.819 290.672 180.795 289.84C180.847 289.32 180.847 288.748 180.847 288.228C180.847 287.76 180.847 287.292 180.847 286.824ZM155.991 278.712C155.991 278.088 157.083 275.28 157.395 274.5L160.099 266.752L161.711 262.124C162.075 261.084 162.283 259.368 163.791 259.368C164.623 259.368 165.351 260.044 165.351 260.928C165.351 261.552 164.259 264.36 163.947 265.14L163.271 267.116H163.323C163.895 267.428 172.319 273.304 172.527 273.564C172.787 273.876 172.943 274.188 172.943 274.604C172.943 275.436 172.267 276.164 171.383 276.164C171.123 276.164 170.863 276.112 170.603 275.956C170.135 275.696 164.363 271.692 162.179 270.132L161.243 272.888L159.631 277.516C159.267 278.556 159.059 280.272 157.551 280.272C156.719 280.272 155.991 279.596 155.991 278.712ZM199.978 265.608C199.978 261.76 202.11 257.132 206.634 257.132C210.534 257.132 213.394 261.136 213.394 264.724C213.394 265.764 212.978 266.804 212.51 267.688C211.262 270.028 208.818 271.848 206.062 271.848C202.838 271.848 199.978 268.78 199.978 265.608ZM203.098 265.296C203.098 266.908 204.346 268.728 206.062 268.728C207.778 268.728 209.13 267.324 209.858 265.92C210.014 265.556 210.274 265.088 210.274 264.672C210.274 262.904 208.714 260.252 206.686 260.252C204.19 260.252 203.098 263.268 203.098 265.296ZM223.066 278.92C223.066 280.064 222.182 280.428 221.142 280.48L201.642 281.208C198.47 281.312 195.246 281.572 192.074 281.572C191.242 281.572 190.514 280.844 190.514 280.012C190.514 278.868 191.398 278.504 192.438 278.452L211.938 277.724C215.11 277.62 218.334 277.36 221.506 277.36C222.338 277.36 223.066 278.088 223.066 278.92ZM204.242 299.564C206.738 298.888 209.494 298.108 212.094 298.108C212.926 298.108 213.654 298.836 213.654 299.668C213.654 301.436 211.834 301.228 210.586 301.384C209.65 301.488 208.766 301.696 207.83 301.904C206.946 302.112 203.982 302.996 203.358 302.996C200.706 302.996 200.966 298.472 200.966 296.704C200.966 294.676 201.486 294.26 203.358 293.532C205.438 292.7 207.674 292.336 209.806 291.66C209.858 291.296 209.858 290.932 209.858 290.568C209.858 289.996 209.858 289.424 209.806 288.852C208.246 288.904 206.686 289.06 205.126 289.216C204.45 289.268 203.722 289.424 203.046 289.424C202.214 289.424 201.486 288.696 201.486 287.864C201.486 286.356 202.786 286.304 203.93 286.2C206.166 285.992 208.506 285.68 210.794 285.68C213.134 285.68 212.978 289.268 212.978 290.828C212.978 292.44 212.822 293.792 211.158 294.468C210.482 294.728 209.806 294.884 209.13 295.092C207.466 295.56 205.75 295.924 204.138 296.548C204.138 297.588 204.138 298.524 204.242 299.564ZM262.68 267.532C262.68 265.244 262.68 263.008 262.732 260.72C262.732 259.576 262.68 258.38 262.784 257.288C262.888 256.456 263.46 255.78 264.344 255.78C265.176 255.78 265.904 256.456 265.904 257.34C265.904 260.72 265.8 264.1 265.8 267.532V272.368H266.008C268.036 272.316 270.116 272.264 272.196 272.264H275.836C276.668 272.264 277.396 272.94 277.396 273.824C277.396 275.228 276.252 275.384 275.108 275.384C274.328 275.384 273.548 275.384 272.768 275.384L268.14 275.488C267.36 275.488 266.58 275.488 265.8 275.488V296.496C265.8 297.484 265.384 298.42 264.24 298.42C263.408 298.42 262.68 297.744 262.68 296.86V267.532ZM240.476 275.956C240.476 271.64 243.024 268.364 247.34 267.584H247.548C250.668 267.584 253.372 271.432 253.476 274.292V275.124C253.476 279.336 251.032 283.184 246.456 283.184C242.192 283.184 240.476 279.804 240.476 275.956ZM247.652 270.704C247.34 270.704 246.716 270.964 246.404 271.12C244.428 272.056 243.596 273.876 243.596 276.008C243.596 277.984 244.012 280.064 246.456 280.064C249.42 280.064 250.356 277.308 250.356 274.812C250.356 273.304 249.576 271.9 248.328 271.068C248.172 270.964 247.808 270.704 247.652 270.704ZM302.558 296.444C302.558 293.012 302.662 289.58 302.714 286.148L303.026 265.4L303.078 260.616L303.13 258.536C303.13 257.392 303.13 255.936 304.69 255.936C305.522 255.936 306.25 256.612 306.25 257.496C306.25 260.928 306.146 264.36 306.094 267.792L305.782 288.54L305.73 293.324L305.678 295.404C305.678 296.548 305.678 298.004 304.118 298.004C303.286 298.004 302.558 297.328 302.558 296.444ZM294.602 282.248C293.77 282.248 286.906 279.024 284.098 277.464C283.422 279.076 282.85 280.376 282.642 281C282.122 282.3 281.706 283.652 281.238 285.004C280.978 285.628 280.458 286.096 279.73 286.096C278.898 286.096 278.17 285.42 278.17 284.536C278.17 284.068 278.378 283.652 278.482 283.236C279.054 281.468 279.73 279.856 280.406 278.14L284.514 268.364C284.878 267.428 286.594 262.696 286.854 262.332C287.166 261.864 287.582 261.604 288.154 261.604C288.986 261.604 289.714 262.28 289.714 263.164C289.714 263.996 287.374 269.664 285.346 274.5L286.23 275.02C288.31 276.216 290.546 277.204 292.73 278.192C293.458 278.504 294.966 278.972 295.538 279.44C295.902 279.752 296.162 280.168 296.162 280.688C296.162 281.52 295.486 282.248 294.602 282.248ZM335.649 267.532C335.649 265.244 335.649 263.008 335.701 260.72C335.701 259.576 335.649 258.38 335.753 257.288C335.857 256.456 336.429 255.78 337.313 255.78C338.145 255.78 338.873 256.456 338.873 257.34C338.873 260.72 338.769 264.1 338.769 267.532V272.368H339.029C341.057 272.316 343.085 272.264 345.165 272.264H348.805C349.637 272.264 350.365 272.94 350.365 273.824C350.365 275.228 349.221 275.384 348.077 275.384C344.957 275.384 341.837 275.488 338.769 275.488V296.496C338.769 297.484 338.353 298.42 337.209 298.42C336.377 298.42 335.649 297.744 335.649 296.86V267.532ZM316.149 285.368C315.317 285.368 314.641 285.316 314.121 284.588C314.017 284.432 313.913 284.224 313.861 284.016C313.653 283.028 313.653 281.988 313.549 281L312.769 274.552L312.249 269.924C312.197 269.248 311.989 268.52 311.989 267.844C311.989 267.012 312.717 266.284 313.549 266.284C314.173 266.284 314.693 266.648 314.953 267.168C315.265 267.74 316.617 280.324 316.825 282.196C319.737 281.884 322.597 281.364 325.509 280.896C327.277 280.636 329.045 280.272 330.813 280.272C331.645 280.272 332.373 281 332.373 281.832C332.373 282.716 331.749 283.34 330.917 283.392C326.549 283.808 322.181 284.692 317.813 285.212C317.241 285.264 316.721 285.368 316.149 285.368ZM389.779 292.18C389.779 293.324 388.947 293.688 387.959 293.74C386.867 293.792 385.775 293.844 384.683 293.896L381.407 293.948C376.831 294.052 372.151 294.208 367.575 294.364C366.847 294.416 366.067 294.416 365.339 294.468L360.971 294.624C360.243 294.676 359.463 294.728 358.735 294.728C357.331 294.78 355.927 294.884 354.523 294.884C353.691 294.884 352.963 294.156 352.963 293.324C352.963 292.128 353.847 291.816 354.887 291.764C357.591 291.556 360.347 291.556 363.103 291.452C364.403 291.4 365.703 291.348 367.003 291.296C367.627 290.672 368.199 290.048 368.771 289.424C368.979 289.164 369.187 288.904 369.395 288.644C368.979 286.356 368.355 284.172 367.679 281.936C367.471 281.26 366.899 279.44 366.899 278.816C366.899 278.14 367.367 277.516 368.043 277.308C365.911 276.008 364.455 273.72 364.455 271.172C364.455 266.544 367.055 261.448 372.255 261.448C374.387 261.448 377.923 263.268 379.015 265.088C379.587 266.076 379.899 267.22 379.899 268.364C379.899 271.536 378.287 275.488 375.531 277.36C375.687 277.308 375.843 277.256 376.051 277.256C376.883 277.256 377.611 277.984 377.611 278.816C377.611 279.44 377.299 280.012 377.091 280.584C375.635 284.536 373.971 287.916 371.371 291.14C374.387 291.036 377.351 290.932 380.367 290.88C382.967 290.828 385.619 290.62 388.219 290.62C389.051 290.62 389.779 291.348 389.779 292.18ZM367.575 271.12C367.575 273.46 369.759 275.332 371.995 275.332C374.959 275.332 376.779 270.912 376.779 268.416C376.779 267.844 376.675 267.272 376.363 266.752C375.791 265.816 373.295 264.568 372.203 264.568C368.979 264.568 367.575 268.416 367.575 271.12ZM371.995 278.452C371.267 278.452 370.539 278.296 369.811 278.088C369.967 278.452 370.071 278.92 370.175 279.388C370.487 280.584 371.215 282.82 371.787 284.848C372.515 283.444 373.191 281.988 373.763 280.532C374.075 279.7 374.335 278.296 375.063 277.62C374.127 278.14 373.139 278.452 371.995 278.452ZM397.831 270.496C397.831 271.432 398.351 272.264 398.351 273.148C398.351 273.98 397.623 274.708 396.791 274.708C394.919 274.708 394.711 271.796 394.711 270.444C394.711 266.856 397.935 262.072 401.835 262.072C404.539 262.072 407.607 264.36 408.439 266.96C408.855 268.208 408.959 269.56 408.959 270.912C408.959 274.968 407.399 277.672 405.007 280.792C404.019 282.04 403.135 282.82 402.615 284.328C402.355 285.056 402.251 285.784 402.147 286.512C402.043 287.708 402.251 289.476 400.535 289.476C399.703 289.476 398.975 288.8 398.975 287.916C398.975 286.044 399.287 284.172 400.015 282.404C400.483 281.208 401.367 280.272 402.147 279.284C404.279 276.736 405.839 274.344 405.839 270.912C405.839 268.728 405.631 267.22 403.759 265.868C403.187 265.504 402.563 265.192 401.835 265.192C399.755 265.192 397.831 268.624 397.831 270.496ZM398.715 294.468C398.715 293.792 398.923 293.22 399.079 292.596C399.339 291.66 399.547 290.724 400.639 290.672C400.847 290.62 401.003 290.568 401.211 290.568C402.667 290.568 403.135 292.44 403.135 293.584C403.135 295.04 402.771 296.86 400.951 296.86C399.599 296.86 398.715 295.716 398.715 294.468Z" fill="black"/>
</svg>
