<svg width="263" height="231" viewBox="0 0 263 231" fill="none" xmlns="http://www.w3.org/2000/svg">
<path d="M125.383 14.24C124.603 14.32 123.823 14.48 123.023 14.48C122.703 14.48 122.423 14.22 122.423 13.88C122.423 13.34 122.883 13.3 123.303 13.26C123.983 13.2 124.663 13.06 125.343 13.04C125.343 12.54 125.363 12.04 125.383 11.52C125.403 10.68 125.423 10.42 125.423 9.58C125.403 9.58 125.383 9.58 125.363 9.58C124.443 9.64 123.483 9.76 122.563 9.76C122.243 9.76 121.963 9.5 121.963 9.16C121.963 8.54 122.563 8.56 123.023 8.52C123.823 8.46 124.643 8.36 125.443 8.34L125.463 6.9C125.423 6.9 125.363 6.9 125.323 6.9C124.423 6.96 123.523 7.06 122.623 7.06C122.303 7.06 122.023 6.8 122.023 6.46C122.023 5.84 122.603 5.86 123.063 5.84L124.263 5.74C124.663 5.7 125.063 5.68 125.463 5.68V5.64C125.483 4.62 125.463 3.6 125.543 2.58C125.563 2.2 125.703 1.86 126.123 1.86C126.443 1.86 126.723 2.14 126.723 2.46C126.723 2.6 126.723 2.7 126.723 2.84L126.683 3.64C126.683 3.78 126.683 3.9 126.683 4.04L126.643 6.5C126.623 8.04 126.623 9.78 126.583 11.32C126.563 12.04 126.563 12.8 126.523 13.52C126.563 13.66 126.583 13.86 126.583 14.08C126.583 14.16 126.583 14.26 126.583 14.34L126.603 14.84C126.603 14.92 126.603 15.02 126.603 15.1C126.603 15.66 126.543 16.12 126.003 16.42C125.283 16.86 124.383 16.96 123.623 17.36C123.583 17.74 123.543 18.12 123.503 18.52C124.183 18.44 124.843 18.34 125.503 18.24C125.803 18.18 126.103 18.1 126.403 18.1C126.723 18.1 127.003 18.36 127.003 18.7C127.003 19.22 126.583 19.28 126.163 19.34C125.263 19.48 124.023 19.74 123.143 19.74C122.443 19.74 122.303 19.2 122.303 18.62C122.303 18.26 122.363 17.92 122.403 17.58C122.423 17.24 122.403 16.86 122.643 16.62C123.203 16.04 124.603 15.72 125.363 15.4C125.383 15.2 125.383 14.98 125.383 14.78C125.383 14.6 125.383 14.42 125.383 14.24ZM119.983 5.3H119.963C119.243 5.34 118.523 5.4 117.783 5.46C117.483 5.5 117.163 5.54 116.843 5.54C116.523 5.54 116.243 5.28 116.243 4.94C116.243 4.7 116.363 4.54 116.563 4.4C116.763 4.28 120.003 4.08 120.483 4.08C120.943 4.08 121.343 4.26 121.343 4.76C121.343 5.52 119.803 8.88 119.443 9.76C119.223 10.26 119.063 10.78 118.863 11.26C118.763 11.5 118.563 11.68 118.283 11.68C117.963 11.68 117.683 11.42 117.683 11.08C117.683 10.6 119.643 6.26 119.963 5.32L119.983 5.3ZM139.371 3.66C139.371 3.94 139.211 4.1 138.971 4.22C138.831 4.28 132.891 4.46 132.191 4.46C131.871 4.46 131.591 4.18 131.591 3.86C131.591 3.58 131.751 3.42 131.991 3.3C132.051 3.26 133.431 3.22 134.931 3.16C134.851 2.64 134.591 1.34 134.591 0.859999C134.591 0.54 134.871 0.26 135.191 0.26C135.751 0.26 135.791 0.759999 135.851 1.18C135.911 1.58 136.111 2.52 136.171 3.12C137.411 3.08 138.491 3.06 138.771 3.06C139.091 3.06 139.371 3.34 139.371 3.66ZM142.051 12.04C142.051 12.48 141.711 12.62 141.311 12.64L133.551 12.9C132.271 12.94 130.991 13.04 129.711 13.04C129.391 13.04 129.111 12.76 129.111 12.44C129.111 12 129.451 11.86 129.851 11.84L134.371 11.72C134.551 11.16 134.851 10.24 135.091 9.56C134.131 9.46 133.491 8.54 133.491 7.6C133.491 6.4 134.591 4.86 135.871 4.86C136.871 4.86 137.611 5.78 137.611 6.74C137.611 7.6 137.191 8.6 136.491 9.14C136.371 9.6 135.991 10.78 135.691 11.64L137.611 11.58C138.891 11.54 140.171 11.44 141.451 11.44C141.771 11.44 142.051 11.72 142.051 12.04ZM135.871 6.06C135.271 6.06 134.691 7.06 134.691 7.6C134.691 7.94 134.891 8.38 135.291 8.38C135.951 8.38 136.411 7.34 136.411 6.78C136.411 6.5 136.211 6.06 135.871 6.06ZM133.111 19.56C133.111 19.02 133.371 18.22 133.491 17.6C133.551 17.26 133.771 15.54 133.851 15.4C133.971 15.2 134.151 15.08 134.391 15.08C134.711 15.08 134.991 15.36 134.991 15.68C134.991 15.8 134.971 15.94 134.951 16.06L134.891 16.46C134.771 17.28 134.611 17.98 134.471 18.7C135.631 18.44 136.871 18.18 138.051 18.18C138.371 18.18 138.651 18.46 138.651 18.78C138.651 19.26 138.271 19.36 137.871 19.4L137.451 19.44C136.631 19.52 135.831 19.66 135.031 19.82C134.611 19.9 134.131 20.1 133.711 20.1C133.391 20.1 133.111 19.84 133.111 19.56Z" fill="#878787"/>
<path d="M6.67203 96.72C6.67203 96.06 6.59203 94.1 7.57203 94.1C8.33203 94.1 9.07203 93.92 9.83203 93.88C9.83203 93.3 9.85203 92.72 9.87203 92.12C9.91203 91.04 9.93203 89.96 9.93203 88.88L9.95203 85.64C9.97203 84.62 9.95203 83.58 10.032 82.56C10.052 82.18 10.192 81.84 10.612 81.84C10.932 81.84 11.212 82.12 11.212 82.44C11.212 82.58 11.212 82.7 11.212 82.84L11.172 83.64C11.172 83.78 11.172 83.9 11.172 84.04L11.132 87.1C11.112 88.64 11.112 90.38 11.072 91.92C11.052 92.64 11.052 93.4 11.012 94.12C11.012 94.18 11.012 94.22 10.992 94.28C11.032 94.36 11.032 94.44 11.032 94.54C11.032 95.5 11.032 97.84 10.752 98.68C10.592 99.2 9.93203 99.26 9.49203 99.38C8.87203 99.56 8.19203 99.78 7.55203 99.78C7.53203 99.78 7.53203 99.78 7.51203 99.78L7.41203 99.76C7.39203 99.76 7.39203 99.76 7.37203 99.76C6.73203 99.68 6.69203 99.2 6.69203 98.66C6.69203 98.5 6.69203 98.34 6.69203 98.18L6.67203 97.2C6.67203 97.04 6.67203 96.88 6.67203 96.72ZM1.13203 88.88C1.13203 88.32 1.21203 87.72 1.43203 87.2C1.77203 86.34 2.83203 85.56 3.77203 85.56C4.83203 85.56 5.97203 86.58 5.97203 87.66C5.97203 88.46 5.61203 89.96 5.21203 90.64C4.77203 91.38 4.27203 91.72 3.39203 91.72C2.91203 91.72 2.47203 91.46 2.11203 91.18C1.23203 90.52 1.13203 89.94 1.13203 88.88ZM3.57203 86.72C3.45203 86.74 3.21203 86.88 3.11203 86.94C2.43203 87.4 2.31203 88.06 2.31203 88.84C2.31203 89.16 2.33203 89.76 2.53203 90C2.63203 90.12 2.77203 90.22 2.91203 90.32C3.07203 90.42 3.29203 90.56 3.49203 90.56C3.61203 90.56 3.83203 90.52 3.93203 90.46C4.39203 90.14 4.79203 88.28 4.79203 87.72C4.79203 87.22 4.13203 86.72 3.67203 86.72H3.57203ZM7.95203 95.3C7.87203 95.7 7.87203 96.14 7.87203 96.54C7.87203 97.2 7.87203 97.88 7.89203 98.54C8.49203 98.44 9.07203 98.26 9.65203 98.08C9.77203 97.08 9.81203 96.08 9.83203 95.08C9.67203 95.1 9.53203 95.12 9.37203 95.14L8.41203 95.24C8.25203 95.26 8.11203 95.28 7.95203 95.3ZM22.0823 94.26C22.0823 93.56 22.1023 92.88 22.1223 92.18C22.1823 90.02 22.1823 87.84 22.2023 85.66C22.2223 84.64 22.2023 83.6 22.2823 82.56C22.3023 82.18 22.4423 81.84 22.8623 81.84C23.1823 81.84 23.4623 82.12 23.4623 82.44C23.4623 82.58 23.4623 82.7 23.4623 82.84L23.4223 83.66C23.4223 83.8 23.4223 83.92 23.4223 84.06L23.3823 87.14C23.3623 88.68 23.3623 90.44 23.3223 91.98C23.3023 92.7 23.3023 93.46 23.2623 94.18C23.2423 94.54 22.9823 94.86 22.6023 94.86C22.3223 94.86 22.0823 94.58 22.0823 94.26ZM12.6023 91.84C12.6023 91.6 13.0423 90.5 13.1423 90.2L14.1823 87.22L14.8023 85.46C14.9423 85.04 15.0223 84.38 15.6023 84.38C15.9223 84.38 16.2023 84.66 16.2023 84.98C16.2023 85.22 15.7623 86.32 15.6623 86.62L15.4023 87.36H15.4223C15.6623 87.48 18.8823 89.74 18.9623 89.84C19.0623 89.96 19.1223 90.08 19.1223 90.24C19.1223 90.56 18.8423 90.84 18.5223 90.84C18.4023 90.84 18.3223 90.8 18.2223 90.76C18.0223 90.66 15.8223 89.14 15.0023 88.52L14.6223 89.6L14.0023 91.36C13.8623 91.78 13.7823 92.44 13.2023 92.44C12.8823 92.44 12.6023 92.16 12.6023 91.84ZM18.0823 98.9C18.0823 98.54 18.2023 98.2 18.2823 97.86C18.4623 97.06 18.6823 96.26 18.7623 95.44C18.7823 95.22 18.7623 94.94 18.8623 94.74C18.9623 94.54 19.1823 94.42 19.4023 94.42C19.7223 94.42 20.0023 94.7 20.0023 95.02C20.0023 96.1 19.6423 97.2 19.4223 98.24C20.4023 98.16 21.4023 98.08 22.3823 98.08C22.7023 98.08 22.9823 98.36 22.9823 98.68C22.9823 99.36 22.2623 99.3 21.7823 99.32L20.6023 99.36C19.9623 99.4 19.3223 99.5 18.6823 99.5C18.3623 99.5 18.0823 99.22 18.0823 98.9Z" fill="#878787"/>
<path d="M41.2161 213.9L41.0561 213.26C40.9561 212.88 40.7961 212.44 40.7961 212.06C40.7961 211.74 41.0761 211.48 41.3961 211.48C41.9161 211.48 41.9761 211.9 42.0761 212.28L42.2561 213.04L42.4761 213.82C42.9561 213.8 43.3161 213.78 43.4761 213.78C43.8561 213.78 44.1561 214.06 44.1561 214.42C44.1561 214.86 43.7761 215.36 43.5361 215.7C43.4761 215.8 43.3961 215.88 43.3161 215.96C44.1361 216.34 45.8161 217.18 45.8761 217.24C45.9961 217.36 46.0761 217.5 46.0761 217.68C46.0761 218 45.8161 218.28 45.4761 218.28C45.3961 218.28 45.3361 218.26 45.2561 218.24C45.0361 218.16 43.2561 217.3 42.5561 216.94L41.4961 218.22C41.2161 218.54 40.9161 219.08 40.5761 219.34C40.4561 219.42 40.3361 219.48 40.1961 219.48C39.8761 219.48 39.5961 219.2 39.5961 218.88C39.5961 218.76 39.6361 218.66 39.6961 218.56C39.9561 218.12 40.3561 217.74 40.6761 217.34C41.3161 216.58 41.9561 215.82 42.5561 215.04L42.5761 215.02C41.8761 215.06 41.1961 215.1 40.4961 215.16C40.1561 215.18 39.7961 215.24 39.4561 215.24C39.1361 215.24 38.8561 214.96 38.8561 214.64C38.8561 214.42 38.9761 214.2 39.1761 214.1C39.2961 214.04 40.2361 213.96 41.2161 213.9ZM42.2961 224.06H42.3161C42.3561 223.3 42.4161 222.5 42.4561 221.78L40.6761 221.84C39.4561 221.88 38.2161 221.98 36.9961 221.98C36.6761 221.98 36.3961 221.7 36.3961 221.38C36.3961 220.94 36.7361 220.8 37.1361 220.78L44.6361 220.5C45.8561 220.46 47.0961 220.36 48.3161 220.36C48.6361 220.36 48.9161 220.64 48.9161 220.96C48.9161 221.4 48.5761 221.54 48.1761 221.56L43.6761 221.72C43.6361 222.44 43.5961 223.18 43.5561 223.96H43.5761C43.7761 223.94 43.9961 223.94 44.1961 223.94C45.0961 223.94 45.0361 225.28 45.0361 225.88C45.0361 226.48 44.9761 227 44.3361 227.24C44.0761 227.34 43.8161 227.4 43.5561 227.48C42.9161 227.66 42.2561 227.8 41.6361 228.04C41.6361 228.42 41.6361 228.78 41.6761 229.16C42.6361 228.92 43.6961 228.62 44.6961 228.62C45.0161 228.62 45.2961 228.9 45.2961 229.2C45.2961 229.88 44.5961 229.8 44.1161 229.86C43.7561 229.9 43.4161 229.98 43.0561 230.06C42.7161 230.12 41.5761 230.46 41.3361 230.46C40.3161 230.46 40.4161 228.76 40.4161 228.1C40.4161 227.32 40.6161 227.18 41.3361 226.9C42.1361 226.6 42.9961 226.44 43.8161 226.18C43.8361 226.06 43.8361 225.92 43.8361 225.78C43.8361 225.56 43.8361 225.34 43.8161 225.14C43.2161 225.16 42.6161 225.2 42.0161 225.26C41.7561 225.28 41.4761 225.34 41.2161 225.34C40.8961 225.34 40.6161 225.08 40.6161 224.76C40.6161 224.2 41.1161 224.18 41.5561 224.14C41.6161 224.14 41.6761 224.12 41.7361 224.12L42.1161 224.08C42.1761 224.08 42.2361 224.06 42.2961 224.06ZM62.8125 218.96C61.8925 218.96 60.9725 218.92 60.0325 218.9H60.0125V224.16C60.0125 224.56 59.8725 224.94 59.4125 224.94C59.0925 224.94 58.8125 224.68 58.8125 224.34C58.8125 223.74 58.8125 223.12 58.8125 222.52L58.8325 218.9C58.8325 218.3 58.8325 217.68 58.8325 217.08C58.8325 215.62 58.7725 214.06 58.8725 212.62C58.8925 212.22 58.9925 211.86 59.4725 211.86C59.7925 211.86 60.0725 212.12 60.0725 212.46C60.0725 213.22 60.0125 214.1 60.0125 214.88V217.68L62.3725 217.74C62.8125 217.76 63.4125 217.74 63.4125 218.36C63.4125 218.68 63.1525 218.96 62.8125 218.96ZM50.0125 221.82C50.0125 221.58 50.4525 220.48 50.5525 220.18L51.5925 217.2L52.2125 215.44C52.3525 215.04 52.4325 214.36 53.0125 214.36C53.3325 214.36 53.6125 214.62 53.6125 214.96C53.6125 215.2 53.1725 216.3 53.0725 216.6L52.8125 217.36H52.8325C53.0525 217.48 56.2925 219.74 56.3725 219.84C56.4725 219.96 56.5325 220.08 56.5325 220.24C56.5325 220.56 56.2725 220.84 55.9325 220.84C55.8325 220.84 55.7325 220.82 55.6325 220.76C55.4525 220.66 53.2325 219.12 52.3925 218.52L52.0325 219.58L51.4125 221.34C51.2725 221.74 51.1925 222.42 50.6125 222.42C50.2925 222.42 50.0125 222.16 50.0125 221.82ZM55.5125 228.88C55.5125 228.54 55.6325 228.22 55.6925 227.9C55.8725 227.08 56.0925 226.24 56.1725 225.42C56.1925 225.2 56.1725 224.92 56.2725 224.72C56.3725 224.52 56.5925 224.4 56.8125 224.4C57.1325 224.4 57.4125 224.68 57.4125 225C57.4125 226.08 57.0725 227.16 56.8525 228.22C57.8325 228.14 58.8325 228.06 59.8125 228.06C60.1325 228.06 60.4125 228.34 60.4125 228.66C60.4125 229.34 59.6925 229.28 59.2125 229.3L58.0325 229.34C57.3925 229.38 56.7525 229.48 56.1125 229.48C55.7925 229.48 55.5125 229.2 55.5125 228.88Z" fill="#878787"/>
<path d="M191.833 216.12C191.833 214.62 192.653 212.82 194.393 212.82C195.893 212.82 196.993 214.38 196.993 215.78C196.993 216.18 196.833 216.58 196.653 216.92C196.173 217.84 195.233 218.54 194.173 218.54C192.933 218.54 191.833 217.34 191.833 216.12ZM193.033 216C193.033 216.62 193.513 217.34 194.173 217.34C194.833 217.34 195.353 216.78 195.633 216.24C195.693 216.1 195.793 215.92 195.793 215.76C195.793 215.06 195.193 214.02 194.413 214.02C193.453 214.02 193.033 215.2 193.033 216ZM200.713 220.58C200.713 221.02 200.373 221.16 199.973 221.18L196.473 221.32C196.493 221.98 196.473 222.64 196.493 223.32C196.493 223.62 196.513 223.94 196.353 224.14C196.653 224.24 196.793 224.56 196.793 224.88C196.793 225.46 196.113 229.68 195.933 229.96C195.813 230.14 195.633 230.26 195.413 230.26C195.093 230.26 194.813 229.98 194.813 229.66C194.813 229.22 194.973 228.76 195.053 228.34C195.233 227.36 195.413 226.38 195.553 225.4L193.693 225.76C193.413 225.82 193.133 225.92 192.853 225.92C192.533 225.92 192.253 225.64 192.253 225.32C192.253 224.72 192.873 224.7 193.313 224.62C193.713 224.54 194.753 224.3 195.473 224.18C195.373 224.08 195.313 223.94 195.293 223.78C195.253 222.96 195.273 222.16 195.273 221.36L194.173 221.4C194.133 222.04 194.093 222.66 194.053 223.3C194.033 223.8 194.013 224.38 193.353 224.34C193.033 224.32 192.813 224.08 192.813 223.76C192.833 222.98 192.893 222.24 192.933 221.44L192.473 221.46C191.253 221.5 190.013 221.6 188.793 221.6C188.473 221.6 188.193 221.32 188.193 221C188.193 220.56 188.533 220.42 188.913 220.4L196.433 220.12C197.653 220.08 198.893 219.98 200.113 219.98C200.433 219.98 200.713 220.26 200.713 220.58ZM210.949 216.82C210.949 215.94 210.949 215.08 210.969 214.2C210.969 213.76 210.949 213.3 210.989 212.88C211.029 212.56 211.249 212.3 211.589 212.3C211.909 212.3 212.189 212.56 212.189 212.9C212.189 214.2 212.149 215.5 212.149 216.82V218.68H212.229C213.009 218.66 213.809 218.64 214.609 218.64H216.009C216.329 218.64 216.609 218.9 216.609 219.24C216.609 219.78 216.169 219.84 215.729 219.84C215.429 219.84 215.129 219.84 214.829 219.84L213.049 219.88C212.749 219.88 212.449 219.88 212.149 219.88V227.96C212.149 228.34 211.989 228.7 211.549 228.7C211.229 228.7 210.949 228.44 210.949 228.1V216.82ZM202.409 220.06C202.409 218.4 203.389 217.14 205.049 216.84H205.129C206.329 216.84 207.369 218.32 207.409 219.42V219.74C207.409 221.36 206.469 222.84 204.709 222.84C203.069 222.84 202.409 221.54 202.409 220.06ZM205.169 218.04C205.049 218.04 204.809 218.14 204.689 218.2C203.929 218.56 203.609 219.26 203.609 220.08C203.609 220.84 203.769 221.64 204.709 221.64C205.849 221.64 206.209 220.58 206.209 219.62C206.209 219.04 205.909 218.5 205.429 218.18C205.369 218.14 205.229 218.04 205.169 218.04Z" fill="#878787"/>
<path d="M242.072 88.82C242.072 87.94 242.072 87.04 242.092 86.16C242.092 85.74 242.072 85.3 242.112 84.88C242.132 84.56 242.372 84.3 242.712 84.3C243.032 84.3 243.312 84.56 243.312 84.9C243.312 86.2 243.272 87.5 243.272 88.82V90.68H243.352C244.132 90.66 244.912 90.64 245.712 90.64H247.132C247.452 90.64 247.732 90.9 247.732 91.24C247.732 91.78 247.292 91.84 246.852 91.84C246.552 91.84 246.252 91.84 245.952 91.84L244.172 91.88C243.872 91.88 243.572 91.88 243.272 91.88V99.96C243.272 100.34 243.112 100.7 242.672 100.7C242.352 100.7 242.072 100.44 242.072 100.1V88.82ZM233.212 89.22C232.892 89.22 232.612 88.96 232.612 88.62C232.612 87.98 233.252 88.02 233.712 88C234.892 87.98 236.052 87.94 237.212 87.94C237.792 87.94 238.292 88.04 238.292 88.74C238.292 90 235.892 94.3 235.172 95.52C234.952 95.9 234.732 96.34 234.472 96.66C234.332 96.82 234.192 96.92 233.972 96.92C233.652 96.92 233.372 96.66 233.372 96.32C233.372 96.2 233.412 96.08 233.472 95.98C233.692 95.64 233.912 95.32 234.112 94.98C234.592 94.18 235.032 93.34 235.452 92.52C236.012 91.42 236.592 90.32 236.992 89.16H236.792C236.492 89.16 236.192 89.16 235.892 89.16L234.112 89.22C233.812 89.22 233.512 89.22 233.212 89.22ZM261.682 94.14C261.682 94.58 261.342 94.72 260.942 94.74L253.182 95C251.902 95.04 250.622 95.14 249.342 95.14C249.022 95.14 248.742 94.86 248.742 94.54C248.742 94.1 249.082 93.96 249.482 93.94L252.382 93.84C252.462 93.74 252.562 93.62 252.642 93.52L253.802 92.06L254.922 90.66C255.162 90.36 255.442 89.84 255.882 89.84C256.202 89.84 256.482 90.12 256.482 90.42C256.482 90.54 256.442 90.64 256.382 90.74C256.242 90.98 256.042 91.18 255.862 91.4L254.702 92.86L253.962 93.78L257.242 93.68C258.522 93.64 259.802 93.54 261.082 93.54C261.402 93.54 261.682 93.82 261.682 94.14ZM256.322 97.4L254.462 97.76C254.182 97.82 253.902 97.92 253.622 97.92C253.302 97.92 253.022 97.64 253.022 97.32C253.022 96.72 253.642 96.7 254.082 96.62C254.642 96.52 256.362 96.1 256.902 96.1C257.342 96.1 257.562 96.48 257.562 96.88C257.562 97.46 256.882 101.68 256.702 101.96C256.582 102.14 256.402 102.26 256.182 102.26C255.862 102.26 255.582 101.98 255.582 101.66C255.582 101.22 255.742 100.76 255.822 100.34C256.002 99.36 256.182 98.38 256.322 97.4ZM254.982 85.66C254.342 85.68 253.682 85.7 253.042 85.72C252.722 85.74 252.382 85.76 252.062 85.76C251.742 85.76 251.462 85.48 251.462 85.16C251.462 84.92 251.602 84.72 251.802 84.62C252.062 84.5 255.342 84.44 255.882 84.44C256.262 84.44 256.522 84.74 256.522 85.08C256.522 85.58 255.702 86.74 255.402 87.16C256.242 87.58 258.622 88.8 258.702 88.88C258.822 89 258.902 89.14 258.902 89.32C258.902 89.62 258.622 89.9 258.302 89.9C258.222 89.9 258.142 89.88 258.062 89.84C257.802 89.74 255.462 88.54 254.702 88.12C254.282 88.72 253.842 89.34 253.382 89.92C253.202 90.16 252.902 90.66 252.702 90.84C252.582 90.94 252.462 91 252.302 91C251.982 91 251.702 90.72 251.702 90.4C251.702 90.3 251.742 90.2 251.782 90.1C251.982 89.7 252.342 89.36 252.602 89C253.162 88.26 253.722 87.48 254.262 86.72C254.502 86.38 254.762 86.04 254.982 85.66Z" fill="#878787"/>
</svg>
