<svg width="66" height="105" viewBox="0 0 66 105" fill="none" xmlns="http://www.w3.org/2000/svg">
<rect width="66" height="105" rx="6" fill="white"/>
<path d="M20.5276 22.338H22.2356V19.454H20.5276C20.5976 19.902 20.6396 20.364 20.6396 20.896C20.6396 21.428 20.5976 21.89 20.5276 22.338ZM17.9516 24.214C18.9596 24.214 19.5896 22.94 19.5896 20.896C19.5896 18.866 18.9596 17.592 17.9516 17.592C16.9576 17.592 16.3136 18.866 16.3136 20.896C16.3136 22.94 16.9576 24.214 17.9516 24.214ZM22.2356 18.516V15.758H23.3276V27.42H22.2356V23.29H20.2896C19.8416 24.55 19.0436 25.278 17.9516 25.278C16.3276 25.278 15.2776 23.598 15.2776 20.896C15.2776 18.208 16.3276 16.528 17.9516 16.528C19.0436 16.528 19.8556 17.256 20.2896 18.516H22.2356ZM24.6996 15.478H25.7916V28.036H24.6996V15.478ZM36.4865 18.194H33.3925C32.6085 20.168 30.6905 21.512 27.9185 22.17L27.4985 21.232C30.5645 20.518 32.3145 19.02 32.5245 17.032H28.1565V16.094H33.7705C33.7705 16.514 33.7285 16.906 33.6445 17.298H36.4865V15.478H37.6485V21.89H36.4865V20.588H33.2105V19.692H36.4865V18.194ZM30.7185 27H38.0685V27.91H29.5845V24.676H36.5005V23.388H29.5565V22.464H37.6485V25.544H30.7185V27ZM46.8035 21.792L46.2295 22.702C44.8155 22.184 43.7235 21.134 43.1635 19.818C42.6455 21.302 41.5255 22.45 40.0275 23.01L39.4255 22.1C41.3435 21.414 42.5615 19.734 42.5615 17.788V16.234H43.7095V17.816C43.7095 19.538 44.9555 21.134 46.8035 21.792ZM42.5895 23.864V26.818H49.7715V27.756H41.4415V23.864H42.5895ZM49.2255 19.328H51.0735V20.28H49.2255V24.746H48.0775V15.464H49.2255V19.328Z" fill="black" fill-opacity="0.9"/>
<path d="M36.6171 56.338H38.3251V53.454H36.6171C36.6871 53.902 36.7291 54.364 36.7291 54.896C36.7291 55.428 36.6871 55.89 36.6171 56.338ZM34.0411 58.214C35.0491 58.214 35.6791 56.94 35.6791 54.896C35.6791 52.866 35.0491 51.592 34.0411 51.592C33.0471 51.592 32.4031 52.866 32.4031 54.896C32.4031 56.94 33.0471 58.214 34.0411 58.214ZM38.3251 52.516V49.758H39.4171V61.42H38.3251V57.29H36.3791C35.9311 58.55 35.1331 59.278 34.0411 59.278C32.4171 59.278 31.3671 57.598 31.3671 54.896C31.3671 52.208 32.4171 50.528 34.0411 50.528C35.1331 50.528 35.9451 51.256 36.3791 52.516H38.3251ZM40.7891 49.478H41.8811V62.036H40.7891V49.478ZM50.714 55.792L50.14 56.702C48.726 56.184 47.634 55.134 47.074 53.818C46.556 55.302 45.436 56.45 43.938 57.01L43.336 56.1C45.254 55.414 46.472 53.734 46.472 51.788V50.234H47.62V51.816C47.62 53.538 48.866 55.134 50.714 55.792ZM46.5 57.864V60.818H53.682V61.756H45.352V57.864H46.5ZM53.136 53.328H54.984V54.28H53.136V58.746H51.988V49.464H53.136V53.328Z" fill="black" fill-opacity="0.9"/>
<path d="M40.3971 79.194H37.3031C36.5191 81.168 34.6011 82.512 31.8291 83.17L31.4091 82.232C34.4751 81.518 36.2251 80.02 36.4351 78.032H32.0671V77.094H37.6811C37.6811 77.514 37.6391 77.906 37.5551 78.298H40.3971V76.478H41.5591V82.89H40.3971V81.588H37.1211V80.692H40.3971V79.194ZM34.6291 88H41.9791V88.91H33.4951V85.676H40.4111V84.388H33.4671V83.464H41.5591V86.544H34.6291V88ZM50.714 82.792L50.14 83.702C48.726 83.184 47.634 82.134 47.074 80.818C46.556 82.302 45.436 83.45 43.938 84.01L43.336 83.1C45.254 82.414 46.472 80.734 46.472 78.788V77.234H47.62V78.816C47.62 80.538 48.866 82.134 50.714 82.792ZM46.5 84.864V87.818H53.682V88.756H45.352V84.864H46.5ZM53.136 80.328H54.984V81.28H53.136V85.746H51.988V76.464H53.136V80.328Z" fill="black" fill-opacity="0.9"/>
<rect x="11" y="49" width="14" height="14" fill="#FF9D8F"/>
<rect x="11" y="76" width="14" height="14" fill="#7E9BFF"/>
</svg>
